<svg width="440" height="316" viewBox="0 0 440 316" fill="none" xmlns="http://www.w3.org/2000/svg">
<path d="M440 189.853C440 244.994 407.22 264.247 366.784 264.247C326.348 264.247 293.568 244.994 293.568 189.853C293.568 134.713 366.784 64.5662 366.784 64.5662C366.784 64.5662 440 134.713 440 189.853Z" fill="#F2F2F2"/>
<path d="M364.117 255.812L364.867 209.664L396.073 152.574L364.984 202.425L365.321 181.675L386.829 140.371L365.41 176.184V176.185L366.017 138.865L389.047 105.981L366.112 132.997L366.491 64.566L364.11 155.155L364.306 151.419L340.891 115.578L363.93 158.593L361.749 200.272L361.684 199.166L334.69 161.448L361.602 203.073L361.329 208.286L361.28 208.364L361.302 208.792L355.767 314.536H363.163L364.05 259.917L390.896 218.394L364.117 255.812Z" fill="#3F3D56"/>
<path d="M39.5987 281.205C39.5987 296.116 30.7342 301.322 19.7994 301.322C8.86449 301.322 0 296.116 0 281.205C0 266.293 19.7994 247.324 19.7994 247.324C19.7994 247.324 39.5987 266.293 39.5987 281.205Z" fill="#F2F2F2"/>
<path d="M19.0784 299.042L19.2808 286.562L27.7198 271.123L19.3127 284.604L19.4038 278.993L25.2199 267.823L19.428 277.508L19.5919 267.416L25.8201 258.524L19.6179 265.829L19.7203 247.324L19.0766 271.821L19.1291 270.811L12.7972 261.119L19.0276 272.751L18.4378 284.022L18.4203 283.723L11.1206 273.523L18.3979 284.78L18.3242 286.189L18.3112 286.21L18.3171 286.326L16.82 314.922H18.8203L19.06 300.152L26.3201 288.923L19.0784 299.042Z" fill="#3F3D56"/>
<path d="M2.79053 314.973H401.396" stroke="#3F3D56" stroke-width="2" stroke-miterlimit="10"/>
<path d="M401.609 301.557C401.609 311.643 395.613 315.164 388.217 315.164C388.046 315.164 387.875 315.162 387.704 315.159C387.361 315.151 387.022 315.135 386.686 315.112C380.011 314.64 374.825 310.937 374.825 301.557C374.825 291.85 387.23 279.601 388.162 278.695L388.163 278.693C388.199 278.658 388.217 278.641 388.217 278.641C388.217 278.641 401.609 291.471 401.609 301.557Z" fill="#C5DF16"/>
<path d="M387.729 313.621L392.627 306.777L387.717 314.373L387.704 315.159C387.361 315.151 387.022 315.135 386.686 315.112L387.214 305.022L387.21 304.943L387.219 304.929L387.269 303.976L382.346 296.361L387.284 303.261L387.296 303.463L387.695 295.839L383.481 287.971L387.746 294.501L388.162 278.695L388.163 278.641V278.693L388.094 291.157L392.289 286.216L388.077 292.231L387.966 299.057L391.883 292.506L387.949 300.061L387.887 303.856L393.574 294.738L387.866 305.181L387.729 313.621Z" fill="#3F3D56"/>
<path d="M258.822 71.4181H256.251C255.682 71.4181 255.222 71.8786 255.222 72.4468V108.553C255.222 109.121 255.682 109.582 256.251 109.582H258.822C259.39 109.582 259.851 109.121 259.851 108.553V72.4468C259.851 71.8786 259.39 71.4181 258.822 71.4181Z" fill="#3F3D56"/>
<path d="M103.261 41.5199H102.013C101.64 41.5199 101.338 41.822 101.338 42.1947V53.409C101.338 53.7816 101.64 54.0838 102.013 54.0838H103.261C103.634 54.0838 103.936 53.7816 103.936 53.409V42.1947C103.936 41.822 103.634 41.5199 103.261 41.5199Z" fill="#3F3D56"/>
<path d="M103.411 64.5222H102.004C101.584 64.5222 101.244 64.8628 101.244 65.2829V85.6302C101.244 86.0503 101.584 86.3909 102.004 86.3909H103.411C103.832 86.3909 104.172 86.0503 104.172 85.6302V65.2829C104.172 64.8628 103.832 64.5222 103.411 64.5222Z" fill="#3F3D56"/>
<path d="M103.354 94.0425H102.015C101.615 94.0425 101.291 94.3666 101.291 94.7663V115.376C101.291 115.776 101.615 116.1 102.015 116.1H103.354C103.754 116.1 104.078 115.776 104.078 115.376V94.7663C104.078 94.3666 103.754 94.0425 103.354 94.0425Z" fill="#3F3D56"/>
<path d="M241.698 0H118.832C109.983 0 102.81 7.17343 102.81 16.0223V298.811C102.81 307.66 109.983 314.833 118.832 314.833H241.698C250.547 314.833 257.72 307.66 257.72 298.811V16.0223C257.72 7.17343 250.547 0 241.698 0Z" fill="#3F3D56"/>
<path d="M185.813 9.40186H166.463C165.833 9.40186 165.322 9.9127 165.322 10.5429V12.6535C165.322 13.2836 165.833 13.7945 166.463 13.7945H185.813C186.443 13.7945 186.954 13.2836 186.954 12.6535V10.5429C186.954 9.9127 186.443 9.40186 185.813 9.40186Z" fill="#E6E8EC"/>
<path d="M192.716 14.0896C194.092 14.0896 195.208 12.9741 195.208 11.5981C195.208 10.2221 194.092 9.10657 192.716 9.10657C191.34 9.10657 190.225 10.2221 190.225 11.5981C190.225 12.9741 191.34 14.0896 192.716 14.0896Z" fill="#E6E8EC"/>
<path d="M248.154 20.5049V294.331C248.153 297.593 246.856 300.722 244.549 303.029C242.241 305.335 239.112 306.631 235.85 306.63H124.68C121.417 306.631 118.288 305.335 115.981 303.029C113.674 300.722 112.377 297.593 112.376 294.331V20.5049C112.376 18.8891 112.694 17.2891 113.313 15.7962C113.931 14.3034 114.837 12.947 115.98 11.8044C117.122 10.6619 118.479 9.75561 119.971 9.13734C121.464 8.51906 123.064 8.20091 124.68 8.20105H141.316V10.3377C141.316 13.0245 142.384 15.6009 144.284 17.5007C146.184 19.4005 148.76 20.4682 151.447 20.469H207.983C210.67 20.4689 213.247 19.4015 215.147 17.5016C217.047 15.6016 218.114 13.0247 218.114 10.3377V8.20105H235.85C237.466 8.20091 239.066 8.51906 240.558 9.13734C242.051 9.75561 243.408 10.6619 244.55 11.8044C245.693 12.947 246.599 14.3034 247.217 15.7962C247.836 17.2891 248.154 18.8891 248.154 20.5049Z" fill="white"/>
<path d="M248.23 71.6803H112.219V227.891H248.23V71.6803Z" fill="#F2F2F2"/>
<path d="M122.095 249.506L121.379 248.86C118.836 246.525 117.157 245.01 117.157 243.123C117.151 242.763 117.216 242.407 117.35 242.073C117.485 241.74 117.684 241.437 117.937 241.182C118.19 240.928 118.492 240.726 118.825 240.59C119.157 240.454 119.513 240.386 119.873 240.39C120.297 240.393 120.715 240.487 121.099 240.667C121.482 240.847 121.822 241.109 122.095 241.434C122.367 241.109 122.707 240.847 123.091 240.667C123.474 240.487 123.893 240.393 124.317 240.39C124.676 240.386 125.032 240.454 125.365 240.59C125.697 240.726 125.999 240.928 126.252 241.182C126.505 241.437 126.705 241.74 126.839 242.073C126.973 242.407 127.039 242.763 127.032 243.123C127.032 245.01 125.353 246.525 122.811 248.86L122.095 249.506Z" fill="#FF6584"/>
<path d="M148.055 247.118L149.439 247.513C149.686 246.796 150.104 246.151 150.657 245.631C151.209 245.112 151.88 244.736 152.611 244.534C153.341 244.332 154.11 244.311 154.851 244.473C155.592 244.635 156.282 244.975 156.862 245.464L154.748 247.513H160.025V242.383L157.898 244.422C157.138 243.755 156.224 243.287 155.239 243.06C154.253 242.833 153.227 242.854 152.251 243.121C151.276 243.388 150.382 243.893 149.65 244.591C148.917 245.288 148.369 246.156 148.055 247.118L148.055 247.118Z" fill="#F2F2F2"/>
<path d="M121.197 60.0094C124.668 60.0094 127.481 57.1959 127.481 53.7251C127.481 50.2544 124.668 47.4408 121.197 47.4408C117.726 47.4408 114.913 50.2544 114.913 53.7251C114.913 57.1959 117.726 60.0094 121.197 60.0094Z" fill="#C5DF16"/>
<path d="M190.773 50.1342H132.419V57.3162H190.773V50.1342Z" fill="#C5DF16"/>
<path d="M175.511 260.21H117.157V267.392H175.511V260.21Z" fill="#F2F2F2"/>
<path d="M240.599 275.867H117.157V283.049H240.599V275.867Z" fill="#F2F2F2"/>
<path d="M142.294 249.052L140.748 246.346C141.118 245.458 141.154 244.466 140.851 243.553C140.548 242.64 139.926 241.868 139.099 241.377C138.271 240.887 137.295 240.711 136.348 240.883C135.402 241.055 134.55 241.563 133.948 242.314C133.346 243.064 133.036 244.007 133.074 244.968C133.111 245.929 133.495 246.844 134.154 247.545C134.812 248.246 135.702 248.685 136.659 248.783C137.616 248.88 138.576 248.628 139.362 248.074L142.294 249.052Z" fill="#F2F2F2"/>
<path d="M168.717 108.316H168.717C166.406 108.789 164.212 109.712 162.259 111.033C160.306 112.354 158.632 114.046 157.332 116.014C156.033 117.982 155.134 120.186 154.687 122.501C154.24 124.816 154.253 127.197 154.726 129.507L158.431 147.615L162.58 146.766L162.873 144.847L163.742 146.528L188.966 141.366L189.259 139.447L190.128 141.128L193.613 140.415L189.907 122.307C189.434 119.997 188.511 117.803 187.19 115.849C185.87 113.896 184.177 112.222 182.209 110.923C180.242 109.624 178.037 108.725 175.722 108.278C173.407 107.83 171.027 107.843 168.717 108.316V108.316Z" fill="#2F2E41"/>
<path d="M199.976 163.871L221.522 176.889L218.829 183.173L198.629 173.747L199.976 163.871Z" fill="#9F616A"/>
<path d="M172.594 178.684C172.594 178.684 129.052 178.684 121.87 189.906C114.688 201.128 120.524 216.839 142.968 220.43C165.412 224.021 233.641 225.817 239.028 212.35C244.415 198.884 240.375 191.253 240.375 191.253C240.375 191.253 217.033 175.093 172.594 178.684Z" fill="#0C4E8C"/>
<path d="M211.197 189.458L234.988 198.435C234.988 198.435 244.863 191.253 239.926 183.173C234.988 175.093 212.544 128.41 212.544 128.41C212.544 128.41 206.26 119.432 214.34 114.495C222.419 109.557 225.562 117.637 225.562 117.637C225.562 117.637 225.113 119.432 228.255 118.086C231.397 116.739 237.232 121.228 234.09 128.41C230.948 135.592 228.704 137.387 235.437 136.939C237.868 136.776 240.007 135.034 241.748 132.874C245.083 128.733 243.594 125.397 243.342 120.086C242.909 110.987 242.203 105.055 239.926 101.477C236.784 96.5393 232.295 92.4994 220.624 94.7438C208.953 96.9882 191.896 108.21 195.935 124.37C199.975 140.53 208.953 158.485 208.953 158.485C208.953 158.485 215.237 183.622 211.197 189.458Z" fill="#0C4E8C"/>
<path opacity="0.1" d="M211.198 189.458C207.319 190.526 202.449 191.047 197.206 191.208C188.058 191.491 177.76 190.683 169.537 189.767C160.654 188.775 154.19 187.662 154.19 187.662C157.193 184.861 161.807 183.752 167.23 183.348C173.963 182.846 181.944 183.42 189.651 183.173C192.493 183.074 195.336 183.288 198.131 183.811C206.632 185.431 211.198 189.458 211.198 189.458Z" fill="black"/>
<path d="M172.369 141.203C179.311 141.203 184.938 135.576 184.938 128.634C184.938 121.693 179.311 116.066 172.369 116.066C165.428 116.066 159.801 121.693 159.801 128.634C159.801 135.576 165.428 141.203 172.369 141.203Z" fill="#9F616A"/>
<path d="M170.798 138.734C170.798 138.734 173.043 147.263 170.798 147.712C168.554 148.161 163.167 150.405 163.167 150.405L169.9 153.098L182.469 164.769L193.242 170.156L198.629 168.36V158.485L190.549 145.916C190.549 145.916 185.162 147.712 183.816 141.876C182.469 136.041 179.776 133.796 179.776 133.796L170.798 138.734Z" fill="#9F616A"/>
<path d="M167.656 150.854H162.27C162.27 150.854 152.843 153.996 147.457 161.178C142.07 168.36 133.541 175.542 133.541 175.542C133.541 175.542 127.706 183.622 130.848 194.844C133.99 206.066 138.479 214.146 142.519 211.902C146.559 209.657 136.683 193.498 136.683 193.498L139.377 183.622C139.377 183.622 153.292 167.462 159.127 167.911C164.963 168.36 165.412 173.298 165.412 173.298L177.98 176.889L182.02 168.36L179.776 159.383L167.656 150.854Z" fill="#9F616A"/>
<path d="M199.975 179.133C199.127 180.59 198.504 182.167 198.13 183.811C197.57 186.238 197.26 188.717 197.206 191.208C188.058 191.491 177.76 190.683 169.537 189.767C168.81 187.828 168.011 185.597 167.23 183.348C165.124 177.27 163.167 171.067 163.167 170.156C163.167 168.36 172.594 171.502 174.838 171.053C177.083 170.605 177.98 163.422 174.838 159.831C171.696 156.24 162.494 150.18 162.494 150.18L165.636 149.283C165.636 149.283 172.594 154.445 186.958 162.974C201.322 171.502 195.487 158.036 195.487 158.036L187.182 145.243H190.773C190.773 145.243 197.731 157.138 201.322 162.525C204.913 167.911 203.566 173.298 199.975 179.133Z" fill="#C5DF16"/>
<path d="M181.263 111.678L158.499 116.336L161.358 130.305L184.122 125.647L181.263 111.678Z" fill="#2F2E41"/>
<path d="M230.275 113.372C233.993 113.372 237.008 110.358 237.008 106.639C237.008 102.92 233.993 99.9059 230.275 99.9059C226.556 99.9059 223.542 102.92 223.542 106.639C223.542 110.358 226.556 113.372 230.275 113.372Z" fill="#3F3D56"/>
<path d="M230.275 110.23C232.258 110.23 233.866 108.622 233.866 106.639C233.866 104.656 232.258 103.048 230.275 103.048C228.292 103.048 226.684 104.656 226.684 106.639C226.684 108.622 228.292 110.23 230.275 110.23Z" fill="white"/>
<path d="M32.6498 184.361L32.191 187.903C32.0357 189.102 31.8803 190.302 31.7967 191.508C31.5185 195.521 32.0371 199.55 31.9006 203.57C31.7955 206.666 31.3024 209.758 31.5406 212.846C31.7513 215.577 32.5286 218.229 33.3016 220.857L34.4064 224.613C34.4154 224.725 34.4502 224.834 34.5081 224.93C34.5659 225.027 34.6453 225.109 34.74 225.17C34.8347 225.231 34.9422 225.269 35.0541 225.282C35.166 225.294 35.2793 225.281 35.3852 225.243L40.2743 224.8C39.9612 223.364 39.6129 221.868 39.4447 220.408C39.3116 219.254 39.2316 218.094 39.1481 216.935C38.888 213.322 38.5934 209.712 38.2989 206.102L37.7814 199.76C37.557 197.009 37.3298 194.242 36.6373 191.57C35.9471 188.865 34.5741 186.383 32.6498 184.361Z" fill="#C5DF16"/>
<path opacity="0.1" d="M32.6498 184.361L32.191 187.903C32.0357 189.102 31.8803 190.302 31.7967 191.508C31.5185 195.521 32.0371 199.55 31.9006 203.57C31.7955 206.666 31.3024 209.758 31.5406 212.846C31.7513 215.577 32.5286 218.229 33.3016 220.857L34.4064 224.613C34.4154 224.725 34.4502 224.834 34.5081 224.93C34.5659 225.027 34.6453 225.109 34.74 225.17C34.8347 225.231 34.9422 225.269 35.0541 225.282C35.166 225.294 35.2793 225.281 35.3852 225.243L40.2743 224.8C39.9612 223.364 39.6129 221.868 39.4447 220.408C39.3116 219.254 39.2316 218.094 39.1481 216.935C38.888 213.322 38.5934 209.712 38.2989 206.102L37.7814 199.76C37.557 197.009 37.3298 194.242 36.6373 191.57C35.9471 188.865 34.5741 186.383 32.6498 184.361Z" fill="black"/>
<path d="M41.3594 305.822C41.0715 306.386 40.821 306.969 40.6094 307.566C40.048 309.214 39.9632 310.98 39.8833 312.719C39.845 313.055 39.8761 313.394 39.9748 313.717C40.2147 314.343 40.9064 314.659 41.553 314.833C44.2609 315.561 47.116 314.876 49.909 314.626C52.6503 314.381 55.4428 314.558 58.1278 313.954C58.5246 313.879 58.9081 313.746 59.2659 313.558C59.9466 313.116 60.4543 312.453 60.704 311.68C60.7857 311.483 60.8406 311.275 60.8674 311.063C60.956 310.148 60.1585 309.353 59.2899 309.052C58.4212 308.752 57.4768 308.801 56.5624 308.707C54.6813 308.514 52.9164 307.706 51.5408 306.409C50.1652 305.111 49.2556 303.396 48.9528 301.53C48.9204 301.33 44.4313 301.448 43.9588 301.707C43.4058 302.01 43.071 302.768 42.7595 303.28C42.2561 304.106 41.7894 304.954 41.3594 305.822Z" fill="#3F3D56"/>
<path opacity="0.1" d="M41.3594 305.822C41.0715 306.386 40.821 306.969 40.6094 307.566C40.048 309.214 39.9632 310.98 39.8833 312.719C39.845 313.055 39.8761 313.394 39.9748 313.717C40.2147 314.343 40.9064 314.659 41.553 314.833C44.2609 315.561 47.116 314.876 49.909 314.626C52.6503 314.381 55.4428 314.558 58.1278 313.954C58.5246 313.879 58.9081 313.746 59.2659 313.558C59.9466 313.116 60.4543 312.453 60.704 311.68C60.7857 311.483 60.8406 311.275 60.8674 311.063C60.956 310.148 60.1585 309.353 59.2899 309.052C58.4212 308.752 57.4768 308.801 56.5624 308.707C54.6813 308.514 52.9164 307.706 51.5408 306.409C50.1652 305.111 49.2556 303.396 48.9528 301.53C48.9204 301.33 44.4313 301.448 43.9588 301.707C43.4058 302.01 43.071 302.768 42.7595 303.28C42.2561 304.106 41.7894 304.954 41.3594 305.822Z" fill="black"/>
<path d="M48.8025 306.248C48.5146 306.812 48.2641 307.394 48.0525 307.991C47.4912 309.639 47.4063 311.405 47.3264 313.144C47.2881 313.48 47.3193 313.82 47.4179 314.143C47.6579 314.768 48.3495 315.085 48.9961 315.258C51.704 315.987 54.5592 315.301 57.3521 315.051C60.0934 314.806 62.8859 314.984 65.5709 314.379C65.9677 314.304 66.3512 314.171 66.709 313.984C67.3897 313.541 67.8975 312.878 68.1472 312.106C68.2288 311.908 68.2838 311.7 68.3105 311.488C68.3991 310.573 67.6017 309.778 66.733 309.478C65.8644 309.177 64.9199 309.226 64.0055 309.132C62.1244 308.939 60.3595 308.131 58.9839 306.834C57.6083 305.536 56.6987 303.822 56.3959 301.955C56.3635 301.755 51.8744 301.873 51.4019 302.132C50.8489 302.436 50.5141 303.193 50.2026 303.705C49.6992 304.532 49.2325 305.379 48.8025 306.248Z" fill="#3F3D56"/>
<path d="M68.216 261.937C68.2739 270.951 65.6523 279.762 62.5774 288.236C61.3601 291.59 60.0683 294.915 58.7021 298.211C57.8933 300.165 56.9819 302.331 57.8486 304.26C55.3544 303.31 52.8005 302.75 50.1673 303.188C51.1697 301.145 51.0754 298.767 51.12 296.493C51.2071 293.404 51.5395 290.328 52.1141 287.293C52.9962 282.674 54.5095 278.199 56.6114 273.993C57.0375 273.106 57.3312 272.161 57.4831 271.189C57.756 269.027 57.6304 266.834 57.1126 264.717C56.1517 260.028 54.3278 255.559 51.7337 251.536C51.7254 251.626 51.7172 251.717 51.7072 251.806C51.5503 253.146 51.3245 254.478 51.0307 255.795C50.4419 258.587 49.7555 261.381 49.858 264.188C49.9684 267.165 49.7839 270.146 49.3072 273.087C49.1559 274.242 48.8551 275.373 48.4124 276.451C48.1246 277.096 47.7492 277.703 47.5225 278.371C47.2977 279.144 47.1803 279.943 47.1735 280.748C46.8378 287.536 47.1686 296.222 48.5563 302.876C46.2178 302.769 43.8939 303.298 41.8327 304.408C40.1555 299.676 39.087 292.955 38.2882 287.971C37.3835 282.084 37.5674 276.081 38.8307 270.26C39.2236 268.318 39.3708 266.334 39.269 264.355C39.0903 260.413 38.1211 256.558 37.1585 252.732C36.6689 250.79 36.1793 248.848 35.6897 246.905C34.9933 244.138 34.2959 241.37 33.5974 238.602C33.1342 236.761 32.6661 234.88 32.8117 232.986C32.914 231.948 33.132 230.925 33.4617 229.935C34.5037 226.566 36.0615 223.38 38.0797 220.489C46.1166 220.94 54.2511 220.188 62.2764 219.571C62.6666 219.493 63.0716 219.562 63.4144 219.764C63.6868 220.042 63.8491 220.409 63.8709 220.798C64.8765 226.493 65.8816 232.188 66.8862 237.882C67.3754 240.26 67.6625 242.676 67.7446 245.102C67.7595 247.52 67.3675 249.93 67.4585 252.347C67.5809 255.602 68.1962 258.68 68.216 261.937Z" fill="#2F2E41"/>
<path opacity="0.1" d="M51.7073 251.806C51.5504 253.146 51.3246 254.478 51.0308 255.795C49.2825 252.772 47.3986 249.824 45.7892 246.725C45.3741 245.926 44.9788 245.117 44.5818 244.31C44.1865 243.503 43.7912 242.696 43.3958 241.888C43.1742 241.435 42.9509 240.98 42.7508 240.516C42.4238 239.846 42.1731 239.142 42.0032 238.417C42.5887 238.309 44.031 239.887 44.4643 240.299C45.3533 241.175 46.1926 242.101 46.9784 243.071C47.9293 244.147 48.802 245.29 49.5901 246.49C50.5973 248.126 51.3136 249.925 51.7073 251.806V251.806Z" fill="black"/>
<path d="M58.4043 168.83C58.4043 168.83 53.9385 175.943 54.7655 177.431C55.5925 178.92 40.7063 176.108 40.7063 176.108C40.7063 176.108 48.811 168.996 47.984 166.018C47.157 163.041 58.4043 168.83 58.4043 168.83Z" fill="#EFB7B9"/>
<path d="M54.4345 170.981C60.0068 170.981 64.524 166.463 64.524 160.891C64.524 155.319 60.0068 150.802 54.4345 150.802C48.8622 150.802 44.345 155.319 44.345 160.891C44.345 166.463 48.8622 170.981 54.4345 170.981Z" fill="#EFB7B9"/>
<path d="M58.5538 176.288C57.4739 174.785 56.0078 173.602 54.3108 172.865C53.3338 172.515 52.3238 172.266 51.2964 172.121L47.271 171.413C46.2845 171.24 45.2286 171.074 44.3134 171.481C43.8455 171.717 43.4197 172.028 43.0527 172.402C41.6535 173.698 40.2977 175.123 38.5435 175.871C38.0633 176.076 37.561 176.225 37.0815 176.432C35.1189 177.277 33.6514 179.042 32.8177 181.009C31.943 183.073 31.9177 185.31 31.9867 187.551C31.9845 188.324 32.0606 189.096 32.2136 189.854C32.4167 190.575 32.6719 191.281 32.9771 191.965C33.533 193.427 33.9986 194.921 34.3712 196.44C35.414 200.432 36.281 204.464 36.9721 208.537C37.0324 209.123 37.2046 209.691 37.4794 210.212C37.8678 210.73 38.3378 211.181 38.871 211.549C39.2933 211.898 39.6835 212.285 40.0372 212.704C40.2098 212.883 40.3363 213.101 40.4057 213.34C40.5363 213.942 40.0042 214.458 39.5722 214.897C38.675 215.813 38.0264 216.942 37.688 218.178C37.4772 218.432 37.3702 218.756 37.3887 219.085C37.4751 219.313 37.5073 219.558 37.4827 219.801C37.3998 220.022 37.2704 220.223 37.1033 220.39C36.9108 220.641 36.774 220.929 36.7018 221.237C36.6296 221.545 36.6238 221.864 36.6846 222.174C39.8121 223.533 43.159 224.316 46.5646 224.487C47.3986 224.526 48.2358 224.526 49.0644 224.628C49.6554 224.701 50.2392 224.825 50.8306 224.894C51.6909 224.975 52.5558 224.997 53.4191 224.96C57.9099 224.871 62.5325 224.755 66.6562 222.975C67.0447 220.86 66.2078 218.705 65.6828 216.619C64.8479 213.303 64.6376 209.863 64.0164 206.5C63.5913 204.198 62.9737 201.933 62.6197 199.619C62.2656 197.305 62.1826 194.907 62.8187 192.654C63.3823 190.658 63.5525 188.625 64.1367 186.635C64.721 184.645 65.1304 182.487 64.4709 180.521C63.653 178.082 61.1222 176.153 58.5538 176.288Z" fill="#C5DF16"/>
<path d="M63.5087 155.542C63.9994 153.751 63.0345 151.886 61.8802 150.43C60.6399 148.867 59.0373 147.456 57.0804 147.063C55.4901 146.744 53.8423 147.129 52.2253 147.001C50.7921 146.887 49.4188 146.373 47.993 146.189C46.7032 146.05 45.4002 146.1 44.1246 146.336C42.912 146.513 41.727 146.844 40.5982 147.321C36.3033 149.224 33.7867 153.924 33.2028 158.585C32.6189 163.246 33.6428 167.942 34.6607 172.528L35.5807 176.674C36.5384 180.989 37.4993 185.326 37.7555 189.738C38.0117 194.151 37.5336 198.68 35.7185 202.71C41.5871 199.558 46.1341 194.41 48.5373 188.197C49.19 186.491 49.6732 184.72 50.3961 183.043C51.0181 181.599 51.8144 180.232 52.3657 178.76C52.9874 177.097 53.286 175.331 53.2453 173.556C53.2139 172.222 52.9907 170.894 53.0296 169.561C53.0685 168.227 53.4077 166.835 54.3297 165.871C55.1492 165.014 56.3137 164.602 57.3697 164.062C59.0305 163.209 60.4813 161.998 61.6176 160.517C62.2826 159.651 62.318 159.281 62.4871 158.282C62.6516 157.309 63.2504 156.486 63.5087 155.542Z" fill="#2F2E41"/>
<path d="M63.5225 231.34C63.6247 232.377 63.4363 233.44 63.6631 234.458C63.8336 235.222 64.2298 235.917 64.4627 236.665C64.694 237.532 64.813 238.424 64.8167 239.322C64.8504 240.074 64.7926 240.989 64.1272 241.341C63.835 241.496 63.4844 241.499 63.1803 241.629C62.8762 241.759 62.6152 242.128 62.7893 242.409C62.9358 242.645 63.2682 242.648 63.5407 242.704C63.8131 242.76 64.1129 243.042 63.9548 243.271C63.8913 243.346 63.8067 243.399 63.7121 243.425C63.4335 243.509 63.1698 243.636 62.9304 243.801C62.8118 243.886 62.719 244.002 62.6622 244.136C62.6054 244.27 62.5869 244.417 62.6088 244.561C62.6251 244.63 62.6571 244.695 62.7022 244.75C62.7472 244.805 62.8043 244.85 62.869 244.879C62.9337 244.909 63.0043 244.924 63.0755 244.922C63.1467 244.921 63.2167 244.903 63.28 244.87C63.1579 245.131 63.0912 245.414 63.0842 245.702C64.1488 246.16 65.3473 245.561 66.3493 244.979C66.7838 244.738 67.2033 244.471 67.6055 244.179C68.4124 243.556 69.0547 242.746 69.4767 241.818C69.8987 240.89 70.0876 239.873 70.0268 238.855C69.9804 238.343 69.9018 237.834 69.7917 237.332C69.6363 236.458 69.4312 235.595 69.1774 234.744C68.891 233.848 68.4973 232.989 68.1597 232.111C67.4402 230.238 66.977 228.278 66.3291 226.38C66.3198 226.289 66.2919 226.201 66.2471 226.122C66.2023 226.043 66.1416 225.973 66.0687 225.918C65.9959 225.864 65.9126 225.824 65.8239 225.803C65.7352 225.782 65.6431 225.779 65.5533 225.796C64.8233 225.758 64.0915 225.825 63.3807 225.996C62.9511 226.121 62.2465 226.397 62.0539 226.847C61.8804 227.252 62.1712 227.615 62.3557 227.963C62.9598 229.002 63.3561 230.149 63.5225 231.34V231.34Z" fill="#EFB7B9"/>
<path opacity="0.1" d="M62.8403 180.652C63.0556 180.871 63.2358 181.121 63.3747 181.395C64.8083 184.001 64.8264 187.119 64.8938 190.092C64.9697 193.439 65.1528 196.782 65.336 200.124L65.8837 210.12C65.936 211.075 65.9884 212.031 66.1224 212.978C66.7667 213.141 66.7933 213.973 66.7187 214.634C66.2574 218.713 65.1099 222.912 66.3117 226.838C66.3576 227.04 66.4543 227.227 66.5927 227.381C65.987 227.19 65.3384 227.182 64.7277 227.356C64.1286 227.482 63.5526 227.702 62.9557 227.838C62.1961 228.01 61.335 228.085 60.8167 228.666C60.2312 226.902 59.7649 225.101 59.421 223.275C59.1365 221.615 59.059 219.889 58.3827 218.346C58.1096 217.724 57.7448 217.146 57.4118 216.553C55.6603 213.433 54.8027 209.905 53.9645 206.426C53.5882 204.777 53.498 203.075 53.6978 201.395C53.8169 200.629 53.8868 199.856 53.9071 199.08C53.8537 198.262 53.7466 197.449 53.5862 196.645C53.2324 194.286 53.3981 191.879 54.0718 189.592C54.6995 187.468 55.2498 185.233 56.5625 183.449C57.8751 181.665 60.6254 180.682 62.8403 180.652Z" fill="black"/>
<path d="M63.3363 180.321C63.5517 180.54 63.7319 180.79 63.8708 181.064C65.3044 183.67 65.3225 186.788 65.3899 189.761C65.4658 193.108 65.6489 196.451 65.8321 199.793L66.3798 209.789C66.4321 210.744 66.4845 211.701 66.6185 212.648C67.2627 212.81 67.2894 213.643 67.2147 214.303C66.7535 218.382 65.606 222.581 66.8078 226.507C66.8537 226.709 66.9504 226.896 67.0888 227.051C66.4831 226.859 65.8345 226.851 65.2238 227.025C64.6247 227.152 64.0487 227.371 63.4518 227.507C62.6922 227.68 61.8311 227.754 61.3128 228.335C60.7273 226.572 60.261 224.77 59.9171 222.944C59.6326 221.284 59.5551 219.558 58.8788 218.016C58.6057 217.393 58.2409 216.815 57.9079 216.222C56.1563 213.103 55.2988 209.574 54.4606 206.095C54.0843 204.446 53.9941 202.744 54.1939 201.065C54.313 200.298 54.3829 199.525 54.4032 198.749C54.3498 197.931 54.2426 197.118 54.0823 196.314C53.7285 193.956 53.8942 191.549 54.5679 189.261C55.1956 187.137 55.7459 184.902 57.0586 183.118C58.3712 181.334 61.1215 180.351 63.3363 180.321Z" fill="#C5DF16"/>
<g opacity="0.1">
<path opacity="0.1" d="M61.8802 150.43C60.6399 148.867 59.0373 147.456 57.0804 147.063C55.4901 146.744 53.8423 147.129 52.2253 147.001C50.7921 146.887 49.4188 146.373 47.993 146.189C46.7033 146.05 45.4002 146.1 44.1246 146.336C42.912 146.513 41.727 146.844 40.5982 147.321C39.9883 147.592 39.4062 147.922 38.8601 148.306C39.8664 147.926 40.9104 147.653 41.9744 147.493C43.25 147.258 44.553 147.208 45.8428 147.347C47.2686 147.531 48.6419 148.045 50.0751 148.159C51.692 148.287 53.3399 147.902 54.9302 148.221C56.887 148.614 58.4896 150.025 59.7299 151.588C60.8843 153.044 61.8491 154.908 61.3585 156.7C61.1001 157.643 60.5014 158.467 60.3369 159.439C60.1677 160.439 60.1323 160.809 59.4674 161.675C58.6116 162.789 57.5763 163.753 56.4041 164.528C56.7276 164.374 57.0535 164.224 57.3697 164.062C59.0305 163.209 60.4813 161.998 61.6176 160.517C62.2825 159.651 62.318 159.281 62.4871 158.282C62.6516 157.309 63.2504 156.486 63.5087 155.542C63.9994 153.751 63.0345 151.886 61.8802 150.43Z" fill="black"/>
<path opacity="0.1" d="M54.3296 165.871C54.503 165.691 54.6918 165.527 54.8938 165.381C53.9296 165.848 52.9155 166.259 52.1794 167.029C51.2575 167.993 50.9182 169.385 50.8793 170.719C50.8404 172.052 51.0636 173.38 51.095 174.714C51.1357 176.488 50.8372 178.255 50.2154 179.918C49.6641 181.39 48.8679 182.757 48.2459 184.2C47.5229 185.878 47.0398 187.648 46.3871 189.355C44.3024 194.74 40.6003 199.347 35.79 202.543C35.7655 202.598 35.7435 202.655 35.7185 202.71C41.5871 199.558 46.1341 194.41 48.5373 188.197C49.19 186.491 49.6732 184.72 50.3961 183.042C51.0181 181.599 51.8144 180.232 52.3656 178.76C52.9874 177.097 53.2859 175.331 53.2452 173.556C53.2138 172.222 52.9907 170.894 53.0296 169.561C53.0684 168.227 53.4077 166.835 54.3296 165.871Z" fill="black"/>
</g>
<path d="M275.911 314.165C275.431 314.745 274.609 314.862 273.865 314.938C272.903 315.078 271.928 315.096 270.962 314.994C269.815 314.823 269.127 315.475 268.079 314.973C267.445 314.67 266.469 315.277 265.834 314.973C264.965 314.557 261.963 314.471 261.434 313.659C260.905 312.847 260.959 311.564 261.796 311.085C262.033 310.973 262.278 310.877 262.529 310.798C263.93 310.241 266.768 306.035 268.258 305.82C268.997 305.786 269.732 305.959 270.378 306.32C271.848 306.972 274.443 307.487 275.084 309.143C275.583 310.433 276.95 312.905 275.911 314.165Z" fill="#2F2E41"/>
<path d="M286.469 313.833C286.949 314.412 287.771 314.529 288.515 314.605C289.477 314.745 290.452 314.763 291.418 314.661C292.565 314.49 293.963 315.475 295.012 314.973C295.646 314.67 296.622 314.828 297.256 314.525C298.125 314.109 302.212 315.036 302.741 314.224C303.27 313.412 303.217 312.129 302.38 311.65C302.143 311.538 301.898 311.442 301.647 311.363C300.246 310.806 295.613 305.703 294.122 305.487C293.383 305.453 292.648 305.626 292.002 305.987C290.532 306.639 287.937 307.154 287.296 308.81C286.797 310.1 285.43 312.572 286.469 313.833Z" fill="#2F2E41"/>
<path d="M291.11 222.173C291.569 223.055 291.971 223.967 292.311 224.902C296.386 235.682 296.727 247.462 296.895 258.985C296.881 260.859 296.988 262.731 297.216 264.591C297.387 265.77 297.656 266.962 297.482 268.141C297.332 269.161 296.852 270.166 297.044 271.178C297.129 271.632 297.347 272.054 297.433 272.508C297.499 273.006 297.485 273.511 297.392 274.005L296.846 278.069C296.535 280.385 295.816 282.615 295.855 284.951C295.882 286.545 295.909 288.141 296.086 289.725C296.267 291.333 296.602 292.929 296.619 294.547C296.632 295.759 296.466 296.964 296.359 298.171C296.208 299.876 296.173 301.589 296.256 303.298C296.32 304.615 296.471 305.983 297.17 307.101C296.387 308.223 295.612 309.229 294.359 309.778C291.813 310.894 288.892 310.516 286.141 310.116C286.294 309.609 286.529 309.033 286.31 308.551C286.18 308.317 286.021 308.101 285.837 307.908C285.237 307.054 284.82 306.085 284.613 305.061C284.28 303.848 283.947 302.541 284.63 301.377C284.866 300.962 284.97 300.485 284.929 300.01C284.359 292.368 282.659 284.462 284.225 276.962C284.392 276.161 284.591 275.365 284.684 274.553C284.768 273.384 284.782 272.212 284.726 271.042L284.693 269.412C284.612 267.674 284.682 265.892 284.334 264.173C284.084 262.942 283.618 261.704 284.192 260.449C284.318 260.162 284.375 259.849 284.361 259.535C284.346 259.222 284.259 258.916 284.107 258.641C282.899 256.524 281.927 254.28 281.209 251.95C281.06 251.299 280.856 250.662 280.598 250.046C280.248 249.396 279.845 248.776 279.394 248.192C278.03 246.215 277.215 243.921 276.415 241.657C276.5 241.449 276.435 241.16 276.212 241.19C275.992 241.246 275.803 241.387 275.687 241.582C274.59 243.056 274.498 245.022 274.449 246.858C274.366 248.564 274.395 250.274 274.536 251.977C274.63 252.868 274.786 253.753 274.866 254.647C274.971 256.313 274.944 257.985 274.786 259.648L274.227 267.828C274.151 268.504 274.191 269.189 274.347 269.851C274.707 270.998 274.882 272.194 274.866 273.395C274.718 278.337 275.146 283.278 276.139 288.121C276.412 289.458 276.728 290.787 276.96 292.132C277.507 295.301 277.582 298.531 277.656 301.746C277.701 303.723 277.733 305.771 276.954 307.589C276.65 308.149 276.427 308.75 276.291 309.373C276.288 309.694 276.245 310.014 276.164 310.324C275.935 310.913 275.249 311.163 274.632 311.298C273.473 311.55 272.285 311.634 271.102 311.549C270.824 311.544 270.55 311.484 270.297 311.37C269.855 311.142 269.621 310.657 269.286 310.291C268.562 309.5 267.359 309.258 266.7 308.413C265.875 307.357 266.221 305.826 266.712 304.579C267.203 303.332 267.81 301.977 267.388 300.706C266.89 299.207 265.125 298.4 264.651 296.893C266.004 290.816 262.683 284.531 262.967 278.312C263.034 276.864 263.285 275.426 263.29 273.976C263.303 270.24 261.685 266.606 261.951 262.88C262.628 253.412 259.403 243.96 258.037 234.567C257.778 233.165 257.681 231.738 257.749 230.314C257.951 227.962 259.043 225.774 260.356 223.813C261.296 222.408 262.427 221.033 263.985 220.375C265.268 219.834 266.706 219.836 268.098 219.847C271.572 219.874 275.046 219.901 278.52 219.963C280.884 219.93 283.245 220.141 285.565 220.594C287.444 221.024 289.202 221.9 291.11 222.173Z" fill="#2F2E41"/>
<path d="M234.98 179.011C234.643 177.364 235.279 175.602 234.782 173.996C234.602 173.417 234.162 172.816 233.556 172.832C232.967 172.849 232.569 173.425 232.047 173.698C231.206 174.138 230.184 173.738 229.343 173.297C228.502 172.856 227.565 172.357 226.653 172.622C226.546 173.193 226.931 173.738 227.351 174.14C227.816 174.491 228.2 174.937 228.48 175.448C228.616 176.001 228.668 176.571 228.634 177.139C228.729 178.444 229.555 179.567 230.381 180.582C231.711 182.217 233.123 183.783 234.613 185.275C234.61 185.272 236.872 182.473 236.829 181.984C236.788 181.523 236.027 181.092 235.75 180.72C235.372 180.213 235.109 179.63 234.98 179.011V179.011Z" fill="#FBBEBE"/>
<path d="M302.339 213.484C302.541 214.008 302.692 214.549 302.79 215.101C303.374 217.929 303.742 220.797 304.104 223.662C304.201 224.427 304.298 225.192 304.327 225.962C304.43 227.791 304.054 229.615 303.236 231.253C302.404 232.896 300.991 234.17 299.27 234.827C298.74 235.015 298 235.05 297.768 234.537C297.686 234.3 297.688 234.042 297.774 233.806C297.983 233.043 298.408 232.358 298.684 231.617C299.094 230.51 299.163 229.305 298.881 228.158C298.772 227.72 298.542 227.23 298.099 227.143C298.32 228.154 298.134 229.211 297.581 230.086C297.455 230.33 297.238 230.514 296.977 230.599C296.793 230.617 296.609 230.572 296.455 230.473C296.3 230.373 296.184 230.223 296.125 230.049C296.017 229.696 295.993 229.323 296.056 228.96C296.198 227.122 296.478 225.297 296.893 223.502C297.387 221.53 298.17 219.585 298.12 217.554C298.075 215.713 297.341 213.905 297.547 212.075C297.549 211.962 297.586 211.852 297.651 211.76C297.716 211.696 297.794 211.647 297.881 211.619C298.395 211.406 298.923 211.231 299.463 211.095C299.781 211.014 300.87 210.637 301.175 210.806C301.422 210.943 301.498 211.763 301.622 212.04C301.84 212.532 302.132 212.987 302.339 213.484Z" fill="#FBBEBE"/>
<path d="M266.01 158.946C270.162 158.946 273.527 155.58 273.527 151.428C273.527 147.277 270.162 143.911 266.01 143.911C261.858 143.911 258.492 147.277 258.492 151.428C258.492 155.58 261.858 158.946 266.01 158.946Z" fill="#FBBEBE"/>
<path d="M272.746 156.869C272.745 157.348 272.783 157.826 272.859 158.299C272.963 158.778 273.11 159.246 273.298 159.698C273.549 160.433 273.903 161.128 274.35 161.763C274.805 162.402 275.485 162.845 276.253 163.003C271.115 165.411 265.629 166.996 259.999 167.7C260.886 167.11 261.624 166.322 262.155 165.398C262.436 164.805 262.629 164.174 262.726 163.524C263.205 160.806 262.962 158.01 262.019 155.417C261.926 155.161 261.835 154.847 262.012 154.64C262.087 154.563 262.178 154.504 262.278 154.466C264.511 153.521 266.922 153.072 269.346 153.148C269.965 153.153 270.584 153.18 271.202 153.225C271.534 153.249 272.268 153.179 272.532 153.422C272.847 153.713 272.689 154.614 272.699 155.008L272.746 156.869Z" fill="#FBBEBE"/>
<path d="M276.723 162.338C275.618 160.921 274.069 159.915 272.325 159.48C270.581 159.046 268.741 159.208 267.1 159.94C263.522 161.648 261.76 165.75 258.613 168.162C257.897 168.698 257.134 169.168 256.334 169.566C255.862 169.827 255.358 170.026 254.835 170.159C254.246 170.289 253.632 170.271 253.047 170.412C251.931 170.74 250.98 171.477 250.386 172.477C250.091 173 249.764 173.504 249.408 173.986C249.079 174.377 248.67 174.692 248.323 175.066C247.071 176.41 246.731 178.341 246.446 180.156C245.467 181.187 244.398 182.129 243.253 182.972C242.893 183.249 242.493 183.47 242.067 183.628C240.966 183.984 239.752 183.53 238.814 182.853C237.876 182.175 237.111 181.282 236.186 180.586C235.336 181.801 234.448 183.02 233.542 184.194C233.405 184.418 233.197 184.589 232.951 184.679C232.781 185.251 233.189 185.844 233.494 186.357L235.133 189.112C235.675 190.115 236.34 191.046 237.112 191.884C237.895 192.727 238.965 193.248 240.111 193.343C240.835 193.337 241.552 193.199 242.227 192.938C245.351 191.888 248.219 190.211 251.19 188.786C251.729 188.478 252.332 188.302 252.951 188.27C253.26 188.262 253.564 188.355 253.815 188.536C254.066 188.717 254.251 188.975 254.342 189.271C254.683 190.992 255.021 192.706 255.49 194.397C255.931 195.991 256.342 197.594 256.721 199.204C256.974 200.19 257.155 201.193 257.262 202.205C257.311 202.779 257.316 203.357 257.322 203.933L257.385 210.903C257.392 211.653 256.964 212.121 256.635 212.795C256.13 213.841 256.054 215.043 256.423 216.145C256.608 216.688 256.897 217.191 257.102 217.727C257.597 219.024 257.578 220.452 257.552 221.84L257.493 225.02C257.478 225.152 257.502 225.285 257.562 225.403C257.756 225.706 258.224 225.529 258.519 225.324L260.007 224.293C261.996 224.567 264.006 224.664 266.013 224.583C271.72 224.501 277.428 224.728 283.122 225.126C285.022 225.259 286.986 225.403 288.782 224.77C289.693 224.448 290.532 223.934 291.464 223.676C291.848 223.616 292.213 223.466 292.528 223.238C293.049 222.756 292.911 221.909 292.698 221.232C292.512 220.639 292.301 220.055 292.065 219.48C291.821 218.951 291.623 218.403 291.472 217.841C291.187 216.572 291.464 215.107 290.674 214.074C288.907 211.762 290.158 208.204 289.416 205.39C289.176 204.479 288.821 203.601 288.596 202.687C288.455 202.113 288.366 201.527 288.277 200.943C288.044 199.679 287.929 198.396 287.932 197.11C287.953 196.467 288.034 195.828 288.115 195.189L288.677 190.756C289.379 192.067 289.867 193.482 290.122 194.947C290.633 197.135 291.263 199.294 292.007 201.414C292.431 202.693 292.854 203.972 293.312 205.239C293.601 205.96 293.824 206.706 293.978 207.467C294.079 208.082 294.082 208.708 294.153 209.327C294.307 210.653 294.771 211.925 295.508 213.038C295.644 213.297 295.869 213.497 296.142 213.601C296.326 213.635 296.515 213.628 296.696 213.579C298.681 213.187 300.601 212.522 302.404 211.604C302.788 211.446 303.121 211.185 303.368 210.851C303.853 210.062 303.311 209.077 303.075 208.181C302.822 207.221 302.881 206.067 302.125 205.423C299.492 203.183 300.799 198.634 299.482 195.439C299.25 194.878 298.981 194.332 298.781 193.759C298.629 193.321 298.518 192.87 298.407 192.419C297.487 188.697 296.503 184.991 295.454 181.303C294.366 177.478 294.482 173.494 293.113 169.761C292.856 168.979 292.52 168.225 292.11 167.51C291.646 166.763 291.027 166.126 290.295 165.64C288.307 164.326 286.301 163.207 283.967 162.731C281.633 162.254 279.106 162.328 276.723 162.338Z" fill="#0C4E8C"/>
<path d="M259.178 153.268C258.168 152.724 258.434 151.246 258.262 150.111C257.909 147.776 255.27 146.391 254.651 144.112C255.363 144.2 256.085 144.098 256.744 143.816C256.871 143.059 256.721 142.282 256.322 141.627C258.492 140.745 260.249 139.015 262.452 138.221C265.223 137.222 268.309 137.835 271.104 138.764C272.499 139.227 273.95 139.829 274.794 141.033C275.72 142.355 275.706 144.095 275.656 145.709C275.578 148.239 275.478 150.861 274.351 153.128C272.917 156.015 268.856 158.688 265.5 157.906C264.104 157.581 263.694 156.705 263.105 155.492C262.739 154.737 262.602 153.861 261.777 153.468C260.972 153.085 259.996 153.709 259.178 153.268Z" fill="#2F2E41"/>
<g opacity="0.1">
<path opacity="0.1" d="M289.662 207.168C289.671 207.368 289.677 207.569 289.679 207.771C289.669 207.572 289.664 207.371 289.662 207.168Z" fill="black"/>
<path opacity="0.1" d="M257.101 214.72C257.597 216.017 257.578 217.445 257.552 218.833C257.545 219.195 257.538 219.557 257.532 219.919C257.5 219.171 257.355 218.432 257.101 217.727C256.897 217.19 256.607 216.688 256.422 216.145C256.105 215.195 256.117 214.165 256.455 213.223C256.64 213.733 256.907 214.212 257.101 214.72Z" fill="black"/>
</g>
<g opacity="0.1">
<path opacity="0.1" d="M256.744 142.722L256.737 142.725C256.668 142.336 256.528 141.964 256.322 141.627C256.45 141.575 256.575 141.52 256.7 141.463C256.799 141.875 256.814 142.304 256.744 142.722V142.722Z" fill="black"/>
</g>
<path d="M19.848 127.397L18.0762 125.799C11.7841 120.022 7.63017 116.273 7.63017 111.602C7.61459 110.713 7.77745 109.831 8.10911 109.006C8.44078 108.182 8.93451 107.432 9.56108 106.801C10.1876 106.171 10.9343 105.673 11.7569 105.336C12.5795 105 13.4612 104.831 14.35 104.842C15.3988 104.847 16.4339 105.081 17.3833 105.527C18.3327 105.972 19.1737 106.619 19.848 107.423C20.5222 106.619 21.3632 105.972 22.3127 105.527C23.2621 105.081 24.2971 104.847 25.346 104.842C26.2347 104.831 27.1165 105 27.9391 105.336C28.7616 105.673 29.5083 106.171 30.1349 106.801C30.7614 107.432 31.2552 108.182 31.5868 109.006C31.9185 109.831 32.0814 110.713 32.0658 111.602C32.0658 116.273 27.9118 120.022 21.6198 125.799L19.848 127.397Z" fill="#FF6584"/>
<path d="M22.9901 123.358L21.2183 121.759C14.9262 115.982 10.7723 112.233 10.7723 107.562C10.7567 106.674 10.9195 105.791 11.2512 104.966C11.5829 104.142 12.0766 103.392 12.7032 102.762C13.3297 102.131 14.0764 101.633 14.899 101.296C15.7216 100.96 16.6033 100.791 17.492 100.802C18.5409 100.807 19.576 101.041 20.5254 101.487C21.4748 101.933 22.3158 102.58 22.9901 103.383C23.6643 102.58 24.5053 101.932 25.4547 101.487C26.4042 101.041 27.4392 100.807 28.4881 100.802C29.3768 100.791 30.2586 100.96 31.0812 101.296C31.9037 101.633 32.6504 102.131 33.277 102.762C33.9035 103.392 34.3973 104.142 34.7289 104.966C35.0606 105.791 35.2235 106.674 35.2079 107.562C35.2079 112.233 31.0539 115.982 24.7619 121.759L22.9901 123.358Z" stroke="#3F3D56" stroke-width="2" stroke-miterlimit="10"/>
</svg>
