<svg width="398" height="288" viewBox="0 0 398 288" fill="none" xmlns="http://www.w3.org/2000/svg">
<path d="M170.932 269.341C245.308 269.341 305.602 209.047 305.602 134.671C305.602 60.294 245.308 0 170.932 0C96.555 0 36.261 60.294 36.261 134.671C36.261 209.047 96.555 269.341 170.932 269.341Z" fill="#F2F2F2"/>
<path d="M54.3134 288C83.8247 288 107.748 284.172 107.748 279.45C107.748 274.729 83.8247 270.901 54.3134 270.901C24.8021 270.901 0.878418 274.729 0.878418 279.45C0.878418 284.172 24.8021 288 54.3134 288Z" fill="#F2F2F2"/>
<path d="M314.989 279.309C360.652 279.309 397.669 273.386 397.669 266.08C397.669 258.774 360.652 252.852 314.989 252.852C269.326 252.852 232.309 258.774 232.309 266.08C232.309 273.386 269.326 279.309 314.989 279.309Z" fill="#F2F2F2"/>
<path d="M296.619 138.925C296.619 138.925 297.323 141.272 293.334 143.383C289.346 145.495 288.172 153.473 292.865 155.819C297.558 158.166 298.966 161.216 296.619 163.328C294.273 165.439 290.05 171.071 295.681 172.478C301.312 173.886 302.016 176.702 300.374 177.875C298.731 179.048 304.128 175.763 304.128 175.763C304.128 175.763 305.066 181.394 309.994 179.987C314.921 178.579 328.764 151.83 321.725 148.076C314.686 144.322 296.619 138.925 296.619 138.925Z" fill="#2F2E41"/>
<path d="M305.124 161.582C305.124 161.582 307.558 170.101 303.298 170.709C300.655 171.121 298.15 172.165 295.997 173.751L303.907 184.095H318.51L327.637 174.968C327.637 174.968 315.468 165.841 317.902 160.365C320.335 154.889 305.124 161.582 305.124 161.582Z" fill="#FFB9B9"/>
<path opacity="0.1" d="M305.124 161.582C305.124 161.582 307.558 170.101 303.298 170.709C300.655 171.121 298.15 172.165 295.997 173.751L303.907 184.095H318.51L327.637 174.968C327.637 174.968 315.468 165.841 317.902 160.365C320.335 154.889 305.124 161.582 305.124 161.582Z" fill="black"/>
<path d="M308.775 267.456L322.77 272.324L332.505 272.932L331.896 264.413L311.817 258.475L308.775 267.456Z" fill="#FFB9B9"/>
<path d="M326.724 265.63C326.724 265.63 326.724 274.149 327.941 274.149C329.158 274.149 345.587 272.324 350.455 274.149C355.322 275.974 362.624 269.281 358.973 265.63C355.322 261.98 349.367 256.503 345.652 257.72C341.936 258.937 326.724 261.98 326.724 261.98V265.63Z" fill="#575A89"/>
<path d="M282.001 257.72C282.001 257.72 274.7 272.324 279.568 273.54C284.435 274.757 289.912 272.932 290.52 272.324C291.129 271.715 299.647 269.281 300.864 270.498C302.081 271.715 302.081 265.63 302.081 265.63L282.001 257.72Z" fill="#575A89"/>
<path d="M288.087 237.641C288.087 237.641 276.526 253.461 285.045 257.72C293.563 261.98 334.331 261.98 337.373 257.72C340.415 253.461 341.632 240.075 337.373 238.858C333.114 237.641 288.087 237.641 288.087 237.641Z" fill="#0C4E8C"/>
<path opacity="0.2" d="M288.087 237.641C288.087 237.641 276.526 253.461 285.045 257.72C293.563 261.98 334.331 261.98 337.373 257.72C340.415 253.461 341.632 240.075 337.373 238.858C333.114 237.641 288.087 237.641 288.087 237.641Z" fill="black"/>
<path d="M309.991 165.841C317.721 165.841 323.986 159.575 323.986 151.846C323.986 144.117 317.721 137.851 309.991 137.851C302.262 137.851 295.997 144.117 295.997 151.846C295.997 159.575 302.262 165.841 309.991 165.841Z" fill="#FFB9B9"/>
<path d="M288.086 173.751L300.256 171.317C300.256 171.317 303.298 181.053 313.034 179.227C322.769 177.402 325.203 171.317 325.203 171.317C325.203 171.317 332.505 174.36 333.113 174.36C333.722 174.36 341.632 177.402 341.632 179.227C341.632 181.053 332.505 199.307 332.505 199.307L333.722 232.164L288.695 230.948L291.737 198.699L288.086 173.751Z" fill="#C5DF16"/>
<path d="M281.393 189.572C281.393 189.572 277.742 221.82 280.176 224.254C282.61 226.688 292.346 233.381 292.346 233.381V226.08L287.478 216.953L292.346 195.656L281.393 189.572Z" fill="#FFB9B9"/>
<path d="M344.37 188.659C344.37 188.659 342.241 221.82 342.241 223.037C342.241 224.254 336.765 228.514 334.939 228.514C333.114 228.514 331.897 225.471 331.897 225.471L336.156 220.603L333.114 195.656L344.37 188.659Z" fill="#FFB9B9"/>
<path d="M338.59 235.207C338.59 235.207 365.971 219.995 366.579 235.207C367.188 250.419 352.584 256.503 352.584 256.503C352.584 256.503 314.859 267.816 313.338 263.681C311.817 259.546 308.775 252.853 311.208 252.244C313.642 251.636 316.685 250.419 317.902 251.636C319.119 252.853 334.33 242.508 334.33 242.508L338.59 235.207Z" fill="#0C4E8C"/>
<path opacity="0.2" d="M351.367 233.381C351.367 233.381 345.891 235.815 344.066 237.641C342.24 239.466 334.33 242.508 334.33 242.508" stroke="black" stroke-width="2" stroke-miterlimit="10"/>
<path d="M291.737 174.968L288.086 173.751C288.086 173.751 274.7 187.746 278.959 191.397C283.219 195.048 285.653 196.265 286.869 197.482C288.086 198.699 294.171 199.307 294.171 199.307L291.737 174.968Z" fill="#C5DF16"/>
<path d="M336.156 178.011L341.632 179.228C341.632 179.228 345.891 188.355 347.108 189.572C348.325 190.788 345.283 190.18 343.457 192.614C341.632 195.048 339.806 199.307 336.156 199.307C332.505 199.307 327.637 193.222 327.637 193.222L336.156 178.011Z" fill="#C5DF16"/>
<path d="M289.304 240.683C289.304 240.683 266.182 224.254 258.272 236.424C250.361 248.593 292.346 265.022 298.431 267.456C304.515 269.89 309.992 272.324 309.992 272.324C309.992 272.324 315.468 258.937 315.468 256.503C315.468 254.069 311.209 254.069 309.992 254.069C308.775 254.069 303.298 252.853 302.081 251.027C300.865 249.202 289.304 240.683 289.304 240.683Z" fill="#0C4E8C"/>
<path opacity="0.2" d="M276.526 236.424C276.526 236.424 282.61 241.291 288.087 242.508C293.563 243.725 295.388 246.768 295.388 246.768" stroke="black" stroke-width="2" stroke-miterlimit="10"/>
<path d="M285.106 213.546L285.592 239.309C285.608 240.159 285.96 240.97 286.571 241.562C287.182 242.155 288.002 242.482 288.853 242.473L336.797 241.934C337.613 241.925 338.396 241.606 338.987 241.042C339.578 240.478 339.933 239.71 339.98 238.895L341.435 213.671C341.461 213.232 341.396 212.793 341.246 212.38C341.095 211.968 340.862 211.59 340.561 211.271C340.259 210.952 339.896 210.697 339.493 210.523C339.089 210.349 338.655 210.26 338.216 210.26H288.331C287.902 210.26 287.478 210.345 287.083 210.511C286.687 210.677 286.329 210.92 286.029 211.226C285.729 211.532 285.492 211.895 285.334 212.293C285.176 212.691 285.098 213.117 285.106 213.546V213.546Z" fill="#3F3D56"/>
<path d="M310.739 134.266C310.739 134.266 311.519 136.865 307.1 139.205C302.681 141.544 301.382 150.382 306.58 152.981C311.779 155.58 313.339 158.959 310.739 161.299C308.14 163.638 303.461 169.877 309.7 171.436C315.938 172.996 316.718 176.115 314.898 177.414C313.079 178.714 319.057 175.075 319.057 175.075C319.057 175.075 320.097 181.313 325.555 179.754C331.014 178.194 336.46 149.845 330.375 142.543C324.718 135.754 310.739 134.266 310.739 134.266Z" fill="#2F2E41"/>
<path d="M309.079 131.591C309.08 127.783 320.473 130.519 325.357 135.836C328.74 139.518 333.878 145.057 329.572 148.962C325.267 152.866 336.952 157.985 340.086 159.537C343.22 161.089 349.407 165.835 343.82 169.018C338.233 172.202 338.324 175.416 340.426 176.177C342.529 176.938 335.79 175.046 335.79 175.046C335.79 175.046 336.471 181.333 330.794 181.303C325.117 181.273 308.831 150.075 312.722 141.403C316.339 133.34 309.079 131.591 309.079 131.591Z" fill="#2F2E41"/>
<path d="M311.547 130.756C296.311 129.839 294.782 141.307 294.782 141.307C294.888 147.944 305.427 144.71 308.354 145.699C311.886 143.159 318.693 138.352 323.561 134.921C320.027 132.433 315.863 130.989 311.547 130.756Z" fill="#2F2E41"/>
<path d="M307.206 203.937C307.206 203.937 293.54 139.887 208 93.4246" stroke="#3F3D56" stroke-width="2" stroke-miterlimit="10"/>
<path d="M211.524 92.0276L211.695 92.7298L208.236 93.5689L209.326 96.9588L208.637 97.1794L207.311 93.0504L211.524 92.0276Z" fill="#3F3D56"/>
<path d="M25.6005 269.381C25.6005 277.493 20.7782 280.326 14.829 280.326C14.6912 280.326 14.5536 280.324 14.4163 280.321C14.1406 280.315 13.8676 280.302 13.5979 280.284C8.2289 279.904 4.05762 276.926 4.05762 269.381C4.05762 261.574 14.035 251.722 14.7844 250.992L14.7857 250.991C14.8146 250.963 14.8291 250.949 14.8291 250.949C14.8291 250.949 25.6005 261.269 25.6005 269.381Z" fill="#C5DF16"/>
<path d="M14.4364 279.085L18.376 273.58L14.4265 279.689L14.416 280.321C14.1404 280.315 13.8674 280.302 13.5977 280.284L14.0223 272.168L14.019 272.105L14.0262 272.093L14.0662 271.326L10.1069 265.202L14.0787 270.752L14.0879 270.914L14.4088 264.782L11.0192 258.454L14.4502 263.706L14.7842 250.992L14.7855 250.949V250.991L14.7297 261.016L18.1043 257.042L14.716 261.88L14.6267 267.37L17.7775 262.101L14.6136 268.178L14.5637 271.231L19.1379 263.897L14.5466 272.296L14.4364 279.085Z" fill="#3F3D56"/>
<path d="M76.9773 267.28L79.2815 265.568C79.2815 265.568 80.8067 274.087 79.1047 275.364C77.4028 276.64 71.0206 278.768 71.0206 281.321C71.0206 283.873 56.5543 287.277 56.1288 283.448C55.7034 279.619 57.4053 277.491 57.4053 277.491C57.4053 277.491 64.2129 270.684 65.0639 269.407C65.9149 268.131 68.0423 265.578 68.0423 265.578L76.9773 267.28Z" fill="#2F2E41"/>
<path d="M42.939 161.335C42.939 161.335 43.0028 161.71 43.1134 162.395C43.2155 163.003 43.3559 163.863 43.5261 164.922C45.3132 175.827 50.5253 207.929 50.1721 208.989C49.7466 210.265 46.7683 214.946 50.1721 216.222C50.4998 216.345 50.8529 216.745 51.2316 217.375C51.9625 218.731 52.565 220.153 53.0313 221.621C55.0609 227.51 57.2309 236.934 58.486 243.461C59.0349 246.329 59.4093 248.635 59.5199 249.843C59.5584 250.123 59.5627 250.406 59.5327 250.686C59.1072 252.388 62.0856 258.345 63.362 260.046C64.6384 261.748 66.7658 263.45 66.3403 265.152C65.9149 266.854 76.9773 271.534 78.2538 268.556C79.5302 265.578 79.5302 263.876 79.9557 263.025C80.3812 262.174 80.8067 256.217 78.6793 255.366C76.5519 254.515 77.8283 239.623 75.7009 236.645C74.9904 235.654 73.9054 232.297 72.7693 228.259C72.3226 226.676 71.8716 224.991 71.4291 223.302C69.6336 216.379 68.0423 209.414 68.0423 209.414L68.4677 159.633L45.0664 156.655L44.4665 157.978L43.2708 160.603L42.939 161.335Z" fill="#0C4E8C"/>
<path d="M41.6626 243.027C41.6626 243.027 38.2587 239.623 36.5568 243.027C34.8549 246.431 33.153 259.621 30.1746 262.599C27.1963 265.578 23.3669 280.469 27.6217 281.32C31.8765 282.171 36.5568 280.044 36.9823 277.491C37.4078 274.938 46.3428 261.748 46.3428 260.472C46.3428 259.195 40.3861 254.515 40.3861 254.515L41.6626 243.027Z" fill="#2F2E41"/>
<path d="M93.9967 137.934C93.9967 137.934 88.4655 187.715 87.189 192.395C85.9126 197.076 79.1049 214.946 76.9775 217.924C74.8501 220.902 61.2348 245.155 59.5328 246.431C57.8309 247.708 54.4271 251.111 54.4271 251.111C54.4271 251.111 48.0449 257.494 47.1939 258.77C46.343 260.047 39.1098 256.217 38.6843 253.664C38.2588 251.111 39.1098 246.857 39.5353 245.155C39.9608 243.453 38.6843 240.9 39.9608 239.624C41.2372 238.347 47.6194 231.965 47.6194 228.987C47.6194 226.008 58.6819 208.563 62.9367 204.734C67.1915 200.905 66.3405 194.523 66.3405 194.523V168.568L42.9391 161.335C42.9391 161.335 44.2156 140.912 47.1939 140.912C50.1723 140.912 89.3164 134.105 93.9967 137.934Z" fill="#0C4E8C"/>
<path d="M59.5325 66.8787C67.2871 66.8787 73.5734 60.5924 73.5734 52.8378C73.5734 45.0833 67.2871 38.797 59.5325 38.797C51.778 38.797 45.4917 45.0833 45.4917 52.8378C45.4917 60.5924 51.778 66.8787 59.5325 66.8787Z" fill="#FFB9B9"/>
<path d="M64.2128 63.9003C64.2128 63.9003 65.9147 70.2825 68.0421 71.9844C70.1695 73.6864 62.5109 80.9195 62.5109 80.9195L48.0446 81.7705L45.4917 73.6864C45.4917 73.6864 50.172 64.3258 48.8955 58.3691C47.6191 52.4124 64.2128 63.9003 64.2128 63.9003Z" fill="#FFB9B9"/>
<path d="M70.1697 71.1335C70.1697 71.1335 66.3404 71.559 65.4894 72.8354C64.6384 74.1118 58.6817 77.9412 54.0014 77.0902C49.3212 76.2392 46.3428 74.9628 45.4918 75.3883C44.6409 75.8138 42.939 84.7488 42.939 84.7488L47.6192 98.3642L46.7683 135.806L45.4918 146.018C45.4918 146.018 42.939 142.614 53.1505 144.741C63.362 146.869 76.5519 143.04 80.8067 142.614C85.0615 142.189 92.2946 140.912 92.7201 138.359C93.1456 135.806 91.4437 126.446 91.4437 126.446L84.636 97.9387L80.3812 82.6214L70.1697 71.1335Z" fill="#C5DF16"/>
<path d="M66.1453 69.2131C66.1453 69.2131 69.7444 67.3042 71.0208 69.0061C72.2972 70.708 88.4655 73.2609 88.4655 74.5373C88.4655 75.8138 91.8693 110.278 91.0183 113.256C90.1674 116.234 92.7203 119.638 92.7203 119.638L95.6986 132.403C95.6986 132.403 103.783 156.655 100.379 157.506C96.9751 158.357 93.9967 157.506 92.7203 157.506C91.4438 157.506 91.8693 141.338 88.4655 137.083C85.0616 132.828 80.3814 122.191 79.5304 120.064C78.6794 117.936 68.0424 88.5782 68.4679 85.1743C68.8934 81.7705 66.1453 69.2131 66.1453 69.2131Z" fill="#3F3D56"/>
<path d="M48.4702 71.1335C48.4702 71.1335 45.0664 71.1335 44.6409 71.9844C44.2154 72.8354 39.9606 78.3666 38.2587 79.6431C36.5568 80.9195 30.6001 86.4508 30.6001 87.7272C30.6001 89.0036 42.939 98.3642 42.939 98.3642C42.939 98.3642 48.0448 123.467 45.4919 131.977C42.939 140.487 39.1097 160.91 40.8116 162.186C42.5135 163.463 46.3428 163.888 46.3428 162.186C46.3428 160.484 48.8957 142.189 51.0231 138.359C53.1505 134.53 59.5327 110.278 56.9798 103.47C54.427 96.6623 48.4702 71.1335 48.4702 71.1335Z" fill="#3F3D56"/>
<path d="M104.634 113.256C104.634 113.256 105.059 126.446 100.379 133.254C95.6988 140.061 92.7204 147.72 92.7204 147.72C92.7204 147.72 85.0618 145.592 83.7854 143.04C82.5089 140.487 74.4248 142.614 74.4248 141.763C74.4248 140.912 84.2108 136.657 85.0618 135.806C85.9128 134.955 88.8911 134.955 90.593 133.254C92.295 131.552 92.7204 127.722 92.7204 127.722L94.4224 116.66L104.634 113.256Z" fill="#FFB9B9"/>
<path d="M69.2035 44.1805C70.2837 44.0824 71.3978 43.9745 72.3524 43.4596C74.4915 42.306 75.0587 39.021 73.4303 37.2169C72.9813 36.7578 72.4792 36.354 71.9345 36.0141L68.7003 33.8127C67.2698 32.8391 65.8056 31.8495 64.1373 31.3905C62.6283 30.9754 61.0346 31.0181 59.4725 31.1152C56.4403 31.3036 53.3892 31.6929 50.5371 32.7399C47.6851 33.7868 45.0246 35.5383 43.2972 38.0376C40.5589 41.9998 40.5212 47.3436 42.0294 51.9177C43.5377 56.4919 46.4026 60.475 49.2255 64.3775L50.6902 57.2306C50.8207 56.594 50.9894 55.8964 51.5189 55.5196C52.8347 54.5833 54.4443 56.5058 56.0593 56.4934C57.0969 56.4853 57.9681 55.6318 58.3614 54.6715C58.7546 53.7112 58.7805 52.6478 58.8715 51.6141C59.0642 49.4246 59.8295 46.3781 61.9029 45.1706C63.835 44.0454 67.0318 44.3778 69.2035 44.1805Z" fill="#2F2E41"/>
<path opacity="0.1" d="M68.4155 161.679C68.4155 161.679 66.9784 203.245 66.1275 204.521C65.2765 205.798 66.1275 161.548 66.1275 161.548L68.4155 161.679Z" fill="black"/>
<path d="M85.0615 74.5373H88.4654C88.4654 74.5373 102.932 94.1094 101.23 95.3858C99.5278 96.6622 101.23 100.066 101.23 100.066L104.634 106.448C104.634 106.448 108.888 110.278 107.612 111.129C106.336 111.98 104.634 115.383 104.634 115.383C104.634 115.383 96.124 114.107 93.5711 119.213L88.0527 112.246L85.0615 74.5373Z" fill="#3F3D56"/>
<path d="M86.2647 80.8327L74.5847 85.6558L83.5729 107.422L95.2528 102.599L86.2647 80.8327Z" fill="#E7E6FF"/>
<path d="M84.8959 93.5985C86.186 93.0658 86.8352 91.6731 86.3457 90.4879C85.8563 89.3027 84.4137 88.7739 83.1236 89.3066C81.8335 89.8394 81.1843 91.232 81.6738 92.4172C82.1632 93.6024 83.6058 94.1313 84.8959 93.5985Z" fill="#C5DF16"/>
<path d="M76.5518 108.576C76.5518 108.576 45.9172 134.104 40.8115 126.02C35.7057 117.936 46.3427 111.128 46.3427 111.128C46.3427 111.128 55.7033 111.554 66.3403 104.746L76.9773 100.066C76.9773 100.066 86.688 86.2022 89.9971 91.4814C93.3063 96.7606 84.3485 105.949 76.5518 108.576Z" fill="#FFB9B9"/>
<path d="M35.2804 86.0252L30.6001 87.7271V100.492L28.8982 103.044C28.8982 103.044 29.3237 108.15 30.6001 109.427C31.8766 110.703 34.4294 110.278 33.5785 113.256C33.067 115.198 32.9227 117.218 33.153 119.213C33.153 119.213 40.8116 128.999 41.2371 127.722C41.6626 126.446 47.6193 110.703 48.4703 110.703C49.3212 110.703 39.9607 86.0252 39.9607 86.0252H35.2804Z" fill="#3F3D56"/>
<path d="M91.2308 150.485C91.2308 150.485 95.6302 146.231 93.4305 146.018C91.2308 145.805 83.5722 141.55 82.2957 143.678C81.0193 145.805 91.2308 150.485 91.2308 150.485Z" fill="#093D6F"/>
<path d="M174.903 69.3211C178.293 69.3211 181.041 67.8663 181.041 66.0717C181.041 64.2771 178.293 62.8223 174.903 62.8223C171.513 62.8223 168.765 64.2771 168.765 66.0717C168.765 67.8663 171.513 69.3211 174.903 69.3211Z" fill="#C5DF16"/>
<path d="M198.371 76.9032C184.531 71.676 170.691 71.676 156.851 76.9032V59.934C170.389 55.8486 184.832 55.8486 198.371 59.934V76.9032Z" stroke="#3F3D56" stroke-width="2" stroke-miterlimit="10"/>
<path d="M192.594 73.3938C182.605 69.6212 172.616 69.6212 162.627 73.3938V61.1465C172.399 58.1979 182.823 58.1979 192.594 61.1465V73.3938Z" stroke="#3F3D56" stroke-width="2" stroke-miterlimit="10"/>
<path d="M177.069 67.877C180.459 67.877 183.207 66.4221 183.207 64.6275C183.207 62.8329 180.459 61.3781 177.069 61.3781C173.679 61.3781 170.931 62.8329 170.931 64.6275C170.931 66.4221 173.679 67.877 177.069 67.877Z" stroke="#3F3D56" stroke-width="2" stroke-miterlimit="10"/>
<path d="M179.416 89.6711C182.738 88.9932 185.139 87.0182 184.78 85.2599C184.421 83.5015 181.438 82.6256 178.117 83.3035C174.795 83.9814 172.394 85.9563 172.753 87.7147C173.111 89.473 176.095 90.3489 179.416 89.6711Z" fill="#C5DF16"/>
<path d="M203.926 92.4069C189.32 90.053 175.76 92.8207 163.244 100.71L159.851 84.0834C172.299 77.3732 186.451 74.485 200.533 75.7804L203.926 92.4069Z" stroke="#3F3D56" stroke-width="2" stroke-miterlimit="10"/>
<path d="M197.565 90.1236C187.023 88.4248 177.236 90.4223 168.203 96.1163L165.754 84.1163C174.738 79.2733 184.952 77.1887 195.116 78.1237L197.565 90.1236Z" stroke="#3F3D56" stroke-width="2" stroke-miterlimit="10"/>
<path d="M181.25 87.8228C184.571 87.1449 186.973 85.17 186.614 83.4116C186.255 81.6532 183.272 80.7773 179.95 81.4552C176.629 82.1331 174.227 84.108 174.586 85.8664C174.945 87.6248 177.929 88.5007 181.25 87.8228Z" stroke="#3F3D56" stroke-width="2" stroke-miterlimit="10"/>
<path d="M183.617 107.11C183.741 105.32 181.101 103.678 177.719 103.442C174.338 103.207 171.495 104.468 171.371 106.258C171.246 108.048 173.886 109.69 177.268 109.926C180.65 110.161 183.492 108.9 183.617 107.11Z" fill="#C5DF16"/>
<path d="M200.153 119.118C186.709 112.943 172.903 111.982 158.733 116.236L159.911 99.3078C173.7 96.1722 188.109 97.1748 201.331 102.19L200.153 119.118Z" stroke="#3F3D56" stroke-width="2" stroke-miterlimit="10"/>
<path d="M194.634 115.217C184.931 110.76 174.966 110.066 164.739 113.136L165.589 100.919C175.542 98.6554 185.941 99.379 195.484 102.999L194.634 115.217Z" stroke="#3F3D56" stroke-width="2" stroke-miterlimit="10"/>
<path d="M185.877 105.82C186.002 104.03 183.362 102.387 179.98 102.152C176.598 101.917 173.756 103.177 173.631 104.968C173.507 106.758 176.147 108.4 179.529 108.635C182.91 108.871 185.753 107.61 185.877 105.82Z" stroke="#3F3D56" stroke-width="2" stroke-miterlimit="10"/>
<path d="M150.685 77.2971C150.685 77.2971 124.149 73.6668 105.199 84.7721" stroke="#3F3D56" stroke-width="2" stroke-miterlimit="10"/>
<path d="M105.838 81.0403L106.527 81.2584L105.45 84.6518L108.914 85.4783L108.745 86.1812L104.527 85.1735L105.838 81.0403Z" fill="#3F3D56"/>
</svg>
