<svg width="440" height="284" viewBox="0 0 440 284" fill="none" xmlns="http://www.w3.org/2000/svg">
<path d="M439.265 280.79H0V284H439.265V280.79Z" fill="#85848B"/>
<path d="M348.012 224.111C348.012 226.58 333.619 233.778 316.523 233.778C299.426 233.778 286.105 226.58 286.105 224.111C286.105 221.641 299.962 222.436 317.075 222.436C334.188 222.436 348.012 221.637 348.012 224.111Z" fill="#504F60"/>
<path opacity="0.2" d="M348.012 224.111C348.012 226.58 333.619 233.778 316.523 233.778C299.426 233.778 286.105 226.58 286.105 224.111" fill="black"/>
<path d="M175.839 178.802C178.614 179.158 181.493 179.384 184.15 178.522C184.569 178.392 185.029 178.103 184.987 177.685C184.958 177.533 184.893 177.389 184.799 177.266C183.797 175.764 182.956 174.16 182.288 172.482C182.262 172.395 182.207 172.319 182.133 172.265C182.047 172.234 181.952 172.234 181.865 172.265C180.639 172.587 179.58 173.378 178.362 173.717C177.741 173.887 177.093 173.936 176.454 173.859C175.902 173.797 175.148 173.34 174.646 173.399C174.931 175.228 175.625 176.935 175.839 178.802Z" fill="#C5DF16"/>
<path d="M228.317 174.169C230.145 172.914 232.041 171.595 233.121 169.658C233.198 169.542 233.243 169.407 233.251 169.268C233.232 169.132 233.179 169.002 233.096 168.892C232.067 167.257 230.743 165.827 229.191 164.677C228.382 165.249 227.65 165.925 227.015 166.686C226.555 167.172 225.282 167.942 225.27 168.682C225.27 169.101 225.755 169.586 225.981 169.938C226.287 170.39 226.576 170.85 226.852 171.319C227.011 171.549 228.463 174.077 228.317 174.169Z" fill="#C5DF16"/>
<path d="M186.716 184.406C186.749 184.837 186.631 185.266 186.381 185.62C186.186 185.816 185.944 185.96 185.678 186.038C181.799 187.428 177.308 185.695 173.437 187.064C172.642 187.344 171.888 187.75 171.089 188.018C170.136 188.304 169.153 188.478 168.159 188.537C166.791 188.666 165.414 188.75 164.041 188.788C162.998 188.862 161.95 188.77 160.936 188.516C160.429 188.386 159.954 188.151 159.544 187.826C159.134 187.5 158.797 187.092 158.554 186.628C158.344 186.212 158.302 185.731 158.437 185.285C158.498 185.132 158.584 184.99 158.693 184.866C158.955 184.572 159.263 184.322 159.605 184.126L161.032 183.205C161.701 182.732 162.428 182.346 163.196 182.058C163.761 181.874 164.359 181.794 164.933 181.64C166.937 181.054 168.469 179.463 169.892 177.936L171.834 175.864C172.015 175.636 172.246 175.452 172.508 175.324C172.777 175.234 173.063 175.207 173.345 175.245C175.231 175.379 177.053 175.99 178.639 177.019C179.044 177.323 179.482 177.582 179.945 177.789C181.083 178.233 182.544 177.898 183.594 177.337C184.092 177.069 183.983 176.919 184.193 176.442C184.402 175.965 184.913 175.659 185.356 176.094C185.49 176.245 185.585 176.426 185.632 176.622C186.051 178.003 185.892 179.488 185.892 180.937C185.88 181.163 185.908 181.39 185.976 181.606C186.082 181.824 186.21 182.032 186.356 182.226C186.386 182.277 186.413 182.33 186.436 182.385C186.692 183.026 186.788 183.719 186.716 184.406V184.406Z" fill="#514E7F"/>
<path d="M186.716 184.406C186.749 184.837 186.631 185.266 186.381 185.62C186.186 185.816 185.944 185.96 185.678 186.038C181.799 187.428 177.308 185.695 173.437 187.064C172.642 187.344 171.888 187.75 171.089 188.018C170.136 188.304 169.153 188.479 168.159 188.537C166.791 188.667 165.414 188.75 164.041 188.788C162.998 188.862 161.95 188.77 160.936 188.516C160.429 188.386 159.954 188.151 159.544 187.826C159.134 187.5 158.797 187.093 158.554 186.628C158.344 186.212 158.302 185.731 158.437 185.285C158.498 185.132 158.584 184.99 158.693 184.866C158.919 185.339 159.082 185.967 159.224 186.193C159.416 186.528 159.678 186.818 159.991 187.044C160.304 187.27 160.662 187.426 161.04 187.503C161.607 187.538 162.175 187.465 162.714 187.29C166.23 186.419 169.967 186.407 173.345 185.088C174.504 184.632 175.609 184.025 176.827 183.749C178.045 183.473 179.338 183.548 180.593 183.443C182.577 183.284 184.498 182.686 186.453 182.372C186.705 183.018 186.796 183.717 186.716 184.406V184.406Z" fill="#464353"/>
<path d="M237.202 173.914C237.017 175.387 236.084 176.655 235.059 177.731C234.033 178.806 232.874 179.773 232.058 181.012C231.054 182.548 230.602 184.452 229.296 185.749C228.795 186.221 228.231 186.622 227.622 186.942C226.939 187.345 226.217 187.677 225.466 187.934C223.516 188.558 221.415 188.415 219.377 188.265C218.715 188.258 218.06 188.132 217.443 187.892C217.163 187.75 216.894 187.584 216.64 187.398C216.129 187.084 215.699 186.654 215.384 186.143C215.23 185.865 215.186 185.539 215.263 185.23C215.379 184.891 215.579 184.586 215.845 184.343C216.303 183.866 216.796 183.423 217.318 183.017C218.034 182.554 218.68 181.99 219.235 181.342C219.575 180.831 219.825 180.264 219.975 179.668C220.272 178.624 220.453 177.55 220.515 176.467C220.513 175.747 220.587 175.028 220.737 174.324C221.047 173.219 221.867 172.231 221.775 171.089C221.738 170.925 221.752 170.754 221.817 170.599C221.914 170.478 222.05 170.394 222.202 170.361C222.842 170.106 223.516 169.949 224.202 169.896C224.547 169.872 224.892 169.925 225.213 170.051C225.535 170.177 225.824 170.373 226.061 170.624C226.345 170.967 226.534 171.461 226.952 171.595C227.159 171.652 227.377 171.66 227.588 171.62C228.618 171.516 229.706 171.386 230.518 170.721C230.893 170.384 231.195 169.973 231.404 169.515C231.612 169.056 231.724 168.559 231.732 168.055C231.732 167.674 231.56 167.276 232.15 167.218C232.594 167.159 232.945 167.636 233.171 167.929C233.987 169.021 234.824 170.164 235.13 171.495C235.249 171.449 235.375 171.425 235.502 171.424C235.763 171.421 236.021 171.482 236.254 171.601C236.486 171.72 236.686 171.893 236.837 172.106C237.171 172.646 237.3 173.287 237.202 173.914Z" fill="#514E7F"/>
<path d="M237.202 173.914C237.018 175.387 236.085 176.655 235.059 177.731C234.034 178.806 232.875 179.773 232.058 181.012C231.054 182.548 230.602 184.452 229.296 185.749C228.795 186.221 228.232 186.623 227.622 186.942C226.939 187.345 226.217 187.677 225.467 187.934C223.517 188.558 221.416 188.415 219.377 188.265C218.716 188.258 218.061 188.132 217.444 187.892C217.163 187.75 216.894 187.584 216.64 187.398C216.129 187.084 215.699 186.654 215.385 186.143C215.777 185.954 216.205 185.852 216.64 185.842C217.544 185.892 218.206 186.746 219.072 187.009C220.306 187.382 221.537 186.511 222.788 186.214C223.604 186.021 224.462 186.072 225.27 185.795C225.943 185.535 226.565 185.158 227.107 184.682C227.851 184.151 228.512 183.514 229.07 182.791C229.534 182.067 229.92 181.297 230.221 180.493C230.882 178.951 231.66 177.463 232.548 176.04C232.679 175.815 232.838 175.607 233.021 175.421C233.218 175.241 233.44 175.115 233.661 174.956C234.498 174.324 234.846 173.282 235.139 172.261C235.218 171.95 235.329 171.649 235.469 171.361C235.73 171.359 235.988 171.419 236.221 171.538C236.453 171.657 236.653 171.83 236.804 172.043C237.164 172.596 237.306 173.263 237.202 173.914V173.914Z" fill="#464353"/>
<path d="M149.443 43.4294C150.485 44.21 151.342 45.2102 151.954 46.359C152.54 47.5057 155.918 56.4034 155.721 57.6966C156.822 56.5875 161.162 56.4075 162.275 55.2985C162.739 54.8339 165.246 52.5154 165.623 51.9755C166 51.4356 168.795 50.3014 169.101 49.7322C170.243 47.6857 160.998 39.9306 162.183 37.9092C162.248 37.8163 162.282 37.7047 162.279 37.5911C162.252 37.4957 162.198 37.41 162.124 37.3442C161.367 36.5699 160.362 36.0886 159.45 35.5153C158.538 34.9419 157.659 34.1425 157.412 33.0879C156.542 33.4884 155.743 34.0284 155.047 34.6866C153.351 36.1403 151.684 37.6232 150.046 39.1354C149.406 39.7297 148.167 40.5207 147.87 41.3703C147.518 42.2827 148.832 42.9314 149.443 43.4294Z" fill="#A1616A"/>
<path d="M164.41 40.1356C162.991 41.0888 161.666 42.1733 160.45 43.3749C159.304 44.5091 158.216 45.8232 157.939 47.4094C157.822 48.033 157.839 48.665 157.743 49.2969C157.324 52.0382 154.955 54.0471 153.909 56.6125C153.606 57.4044 153.383 58.2246 153.244 59.0609C152.95 60.6462 152.789 62.2533 152.762 63.8654C152.737 65.4265 154.269 66.502 154.83 67.9585C155.391 69.4149 155.541 70.9132 155.826 72.4073C156.361 75.2281 157.345 77.9484 158.337 80.652C160.4 86.3522 167.088 102.109 169.151 107.814C175.475 106.227 192.308 102.582 197.907 99.2383C199.774 98.125 184.954 85.5654 186.951 84.6991C187.065 84.6813 187.173 84.6373 187.267 84.5704C187.362 84.5035 187.439 84.4157 187.493 84.3138C187.548 84.2119 187.578 84.0988 187.581 83.9834C187.584 83.8679 187.56 83.7533 187.512 83.6486C185.515 74.9184 179.271 67.745 176.438 59.245C175.454 56.2945 173.688 53.775 172.349 50.971C171.135 48.4306 170.486 45.6223 169.034 43.2075C168.76 42.71 168.402 42.2639 167.975 41.8892C167.613 41.6115 167.222 41.3743 166.808 41.1819C165.979 40.7801 165.209 40.5416 164.41 40.1356Z" fill="#DADADA"/>
<path d="M149.778 42.4374C155.245 42.4374 159.676 38.0059 159.676 32.5395C159.676 27.073 155.245 22.6416 149.778 22.6416C144.312 22.6416 139.88 27.073 139.88 32.5395C139.88 38.0059 144.312 42.4374 149.778 42.4374Z" fill="#A1616A"/>
<path d="M159.848 37.1893C160.341 36.7343 160.961 36.4396 161.625 36.3439C162.289 36.2483 162.967 36.3563 163.568 36.6536C164.238 37.001 164.824 37.7041 164.673 38.4407L169.582 38.516C170.364 38.4946 171.145 38.5663 171.909 38.7294C172.679 38.8969 173.365 39.3277 173.851 39.9473C173.91 40.0268 173.977 40.1231 174.077 40.1357C174.159 40.1369 174.239 40.1104 174.303 40.0603C175.058 39.6816 175.909 39.5359 176.747 39.6418C179.401 39.8134 181.853 41.1401 183.933 42.7974C184.308 43.0553 184.599 43.4176 184.77 43.8395C184.942 44.3961 184.737 45.0951 185.189 45.4926C185.189 50.0963 186.771 54.3986 187.825 58.8851C188.014 59.6845 188.78 60.3918 189.311 61.0195C189.968 61.7155 190.504 62.5161 190.897 63.3883C191.793 65.7153 190.558 68.4524 191.429 70.7877C191.797 71.7754 192.509 72.5873 193.103 73.4453C193.886 74.4359 194.382 75.6233 194.534 76.8771C194.572 77.4379 194.501 78.0029 194.534 78.5511C194.59 79.3052 194.731 80.0506 194.953 80.7735C195.31 82.1239 195.684 83.4729 196.074 84.8205C196.71 86.9968 197.539 89.3446 199.489 90.5039C194.781 91.3033 189.818 92.0859 185.331 90.4495C184.705 90.236 184.111 89.939 183.565 89.5664C181.945 88.4113 181.163 86.4359 180.464 84.5694C179.685 82.4768 178.894 80.3466 178.735 78.1201C178.737 77.4119 178.637 76.7072 178.438 76.0275C177.982 74.8138 176.764 74.0814 175.659 73.4076C174.411 72.7239 173.281 71.8451 172.311 70.8044C171.83 70.2803 171.461 69.6629 171.228 68.9906C170.994 68.3182 170.902 67.6052 170.955 66.8955C171.039 66.2049 171.311 65.5395 171.336 64.8448C171.361 64.15 171.051 63.3549 170.386 63.1707C166.958 62.1328 165.322 58.0732 164.56 54.5744C164.231 52.7661 164.084 50.9295 164.121 49.0919L164.075 45.5219C163.602 45.0916 163.221 44.5695 162.956 43.9874C162.692 43.4054 162.548 42.7755 162.535 42.1362C162.58 41.7631 162.573 41.3856 162.514 41.0145C162.348 40.561 162.079 40.1525 161.727 39.8218C160.97 39.0451 160.336 38.1574 159.848 37.1893V37.1893Z" fill="#0C4E8C"/>
<path d="M149.305 48.5058C149.192 49.6107 149.444 50.7449 149.197 51.8288C149.1 52.2474 148.933 52.6659 148.812 53.0551C148.44 54.6152 148.601 56.2546 149.268 57.7132C149.934 59.1574 150.731 60.5373 151.649 61.8355C151.96 62.2787 152.215 62.7579 152.411 63.2627C152.569 63.7927 152.667 64.3388 152.704 64.8907C152.946 67.107 153.335 69.3048 153.867 71.4697C154.336 73.3447 159.659 89.3738 160.898 90.8595C161.123 91.1885 161.464 91.4202 161.852 91.5082C162.133 91.5188 162.411 91.4613 162.664 91.3408L165.175 90.3782C165.389 90.3129 165.587 90.2047 165.757 90.0602C165.993 89.7852 166.12 89.4344 166.117 89.0725C166.297 87.0301 160.961 70.888 160.283 68.9587C158.232 63.1329 155.504 57.5165 154.169 51.4857C153.796 49.8116 153.599 47.2335 152.373 45.8985C151.867 45.346 152.038 45.5804 151.431 45.8692C151.125 46.0023 150.828 46.1575 150.544 46.3337C150.189 46.5807 149.893 46.9038 149.679 47.2796C149.465 47.6554 149.337 48.0744 149.305 48.5058Z" fill="#0C4E8C"/>
<path d="M156.927 59.5588C157.6 63.1203 158.295 66.6735 158.986 70.2351L168.812 67.6612C168.892 66.6317 168.344 65.6775 167.975 64.7316C167.08 62.4842 167.059 59.9815 166.335 57.6713C165.787 55.9135 164.832 54.298 164.318 52.5277C164.02 51.4982 163.87 50.4351 163.577 49.393C163.263 48.3697 162.877 47.3697 162.422 46.4007C161.87 44.9952 161.151 43.6617 160.279 42.429C159.023 42.8977 157.684 43.4418 156.968 44.5759C156.601 45.215 156.392 45.9323 156.357 46.6685C156.186 48.8741 156.985 51.0922 156.722 53.2852C156.45 55.3737 156.519 57.4925 156.927 59.5588V59.5588Z" fill="#C5DF16"/>
<path d="M168.975 106.935C169.528 109.027 168.728 111.229 168.075 113.3C167.093 116.421 166.422 119.631 166.075 122.884C166.032 123.712 165.866 124.529 165.581 125.308C165.271 126.006 164.744 126.597 164.384 127.262C163.396 129.011 163.422 131.146 163.635 133.146C163.777 134.465 163.991 135.779 164.254 137.076C164.577 138.662 164.974 140.32 164.51 141.868C165.288 141.697 165.816 142.705 165.765 143.496C165.715 144.287 165.46 145.17 165.841 145.852C166.803 146.204 166.812 147.526 166.782 148.552C166.798 150.33 167.023 152.1 167.452 153.825C168.908 160.828 170.454 167.812 172.089 174.776C175.625 175.873 179.756 177.015 183.129 175.496C183.757 175.215 184.385 174.768 184.527 174.09C184.564 173.724 184.518 173.355 184.393 173.01L182.795 167.192C182.405 165.786 182.016 164.334 182.221 162.89C182.376 161.815 182.845 160.655 182.318 159.705C182.138 159.379 181.853 159.124 181.644 158.814C180.807 157.588 181.246 155.947 181.313 154.461C181.339 154.128 181.317 153.792 181.246 153.465C181.132 153.083 180.971 152.717 180.769 152.373C179.448 149.808 178.813 146.944 178.928 144.061C178.978 143.693 178.927 143.319 178.781 142.977C178.68 142.836 178.589 142.688 178.509 142.534C178.447 142.265 178.478 141.983 178.597 141.734C178.117 141.37 177.684 140.949 177.308 140.479C177.54 140.334 177.736 140.139 177.882 139.908C178.028 139.677 178.119 139.415 178.149 139.144C178.179 138.872 178.146 138.597 178.054 138.34C177.962 138.082 177.813 137.849 177.618 137.658C177.788 137.624 177.946 137.543 178.074 137.424C178.201 137.305 178.293 137.154 178.339 136.986C178.386 136.818 178.385 136.641 178.336 136.473C178.288 136.306 178.194 136.155 178.065 136.038C177.86 135.896 177.588 135.833 177.442 135.62C177.216 135.31 177.4 134.879 177.584 134.548L178.559 132.786C179.287 131.476 179.451 129.857 180.233 128.601C181.355 126.772 182.087 124.734 182.811 122.717L185.628 114.945L187.524 116.59C188.155 117.072 188.685 117.675 189.081 118.364C189.35 119.045 189.521 119.761 189.587 120.49C190.282 124.709 192.935 128.367 193.919 132.523C194.136 133.448 194.283 134.419 194.814 135.21C195.005 135.452 195.175 135.71 195.325 135.98C195.464 136.391 195.536 136.822 195.538 137.256C195.626 138.106 195.896 138.927 196.329 139.664C196.762 140.401 197.349 141.035 198.05 141.525C198.983 142.165 200.142 142.605 200.649 143.618C200.75 143.931 200.89 144.231 201.067 144.509C201.519 145.053 202.494 145.116 202.687 145.798C202.795 146.179 202.595 146.635 202.808 146.97C202.929 147.125 203.09 147.245 203.273 147.317L205.997 148.677C209.044 150.201 210.601 153.7 212.848 156.248C213.624 157.078 214.312 157.987 214.899 158.96C215.87 160.697 216.318 162.878 217.958 163.982C218.399 164.211 218.801 164.509 219.147 164.866C219.662 165.544 219.473 166.494 219.519 167.347C219.565 168.201 220.218 169.218 221.03 168.959C220.746 169.993 220.746 171.084 221.03 172.118C224.595 171.935 227.994 170.559 230.681 168.209C231.476 167.515 232.242 166.627 232.251 165.573C232.263 165.391 232.222 165.209 232.133 165.05C231.972 164.844 231.76 164.684 231.518 164.585C228.969 163.204 228.204 160.002 226.915 157.403C225.789 155.11 224.123 153.135 222.729 151.004C219.699 146.422 217.632 140.876 213.049 137.85C212.04 137.185 210.869 136.595 210.362 135.494C210.082 134.879 210.048 134.176 209.827 133.54C209.605 132.904 209.073 132.284 208.395 132.284C208.772 131.363 208.697 130.242 208.722 129.246C208.747 128.804 208.696 128.36 208.571 127.936C208.397 127.479 208.171 127.044 207.897 126.638C206.702 124.614 206.104 122.292 206.173 119.942C206.206 118.733 206.42 117.485 206.056 116.33C205.872 115.749 205.549 115.217 205.327 114.656C204.993 113.64 204.817 112.579 204.804 111.509L204.553 107.487C204.515 106.148 204.341 104.816 204.034 103.511C203.197 100.389 202.36 87.3106 199.493 85.8374C196.627 84.3642 191.701 94.4295 188.474 94.6262C187.046 94.6856 185.636 94.9579 184.289 95.4339C182.142 96.2375 180.342 97.7358 178.589 99.2006L172.654 104.185C171.398 105.219 170.361 106.207 168.975 106.935Z" fill="#464353"/>
<path d="M140.491 21.5493C141.797 19.7664 144.04 18.8206 146.25 18.7411C148.46 18.6615 150.636 19.3563 152.616 20.3398C153.2 20.6721 153.825 20.928 154.474 21.1015C155.52 21.3149 156.684 21.0303 157.63 21.52C158.885 22.1854 159.128 23.8804 159.019 25.2866C158.91 26.6928 158.647 28.2539 159.396 29.4718C159.661 29.8191 159.903 30.184 160.12 30.5641C160.442 31.2881 160.254 32.1252 160.061 32.891C159.572 32.4725 159.295 31.8406 158.86 31.3551C158.425 30.8696 157.667 30.5432 157.127 30.9073C156.587 31.2714 156.596 31.9326 156.567 32.5269C156.537 33.1212 156.387 33.8327 155.826 34.0252C155.592 34.0785 155.347 34.0604 155.123 33.9731C154.899 33.8858 154.707 33.7334 154.57 33.5356C153.612 32.3637 153.997 30.493 153.047 29.3127C152.507 28.6431 151.607 28.3167 151.109 27.6136C150.716 27.0611 150.615 26.358 150.272 25.7637C149.929 25.1694 149.13 24.7342 148.598 25.1443C148.417 25.3176 148.265 25.5199 148.15 25.7428C147.819 26.2176 147.337 26.5667 146.783 26.7337C146.228 26.9008 145.634 26.8761 145.095 26.6635C144.684 26.4109 144.238 26.2179 143.773 26.0902C143.468 26.0749 143.165 26.1452 142.898 26.2931C142.631 26.441 142.41 26.6607 142.262 26.9272C141.961 27.4597 141.816 28.0658 141.843 28.6766C141.843 29.5136 141.994 30.4051 141.517 31.0747C141.335 31.3268 141.108 31.5426 140.847 31.7108C140.148 32.1586 139.173 32.46 138.529 31.9494C138.31 31.7459 138.148 31.4897 138.057 31.2053C137.966 30.921 137.95 30.618 138.01 30.3255C138.135 29.743 138.3 29.1697 138.503 28.6096C138.872 27.3122 138.39 25.8516 138.792 24.6296C139.213 23.529 139.785 22.4923 140.491 21.5493V21.5493Z" fill="#464353"/>
<path d="M145.794 51.0756C145.731 51.3806 145.763 51.6976 145.886 51.9838C146.01 52.1787 146.18 52.3409 146.38 52.4567C147.787 53.3335 149.388 53.8522 151.042 53.9675C151.267 53.9714 151.488 54.0288 151.686 54.135C152.08 54.3944 152.105 54.972 151.959 55.4323C151.763 55.8666 151.662 56.3373 151.661 56.8134C151.783 57.6881 152.821 58.069 153.695 58.1987C154.922 58.3536 156.265 58.2741 157.236 57.5082C157.894 56.9083 158.395 56.1569 158.697 55.3194C161.099 49.7991 161.94 43.6972 164.372 38.1937C164.556 37.8344 164.679 37.4468 164.736 37.047C164.761 36.8469 164.733 36.6435 164.654 36.458C164.574 36.2726 164.446 36.1118 164.284 35.9923C163.832 35.7119 163.129 35.871 162.823 35.4315C162.673 35.2097 162.689 34.9084 162.555 34.674C162.275 34.176 161.538 34.2555 161.036 33.9667C160.643 33.7575 160.371 33.3264 159.931 33.2427C159.716 33.2305 159.5 33.2688 159.302 33.3545C159.103 33.4403 158.928 33.5711 158.789 33.7365C157.362 35.0674 156.612 36.9549 155.817 38.7378C154.603 41.4707 153.181 44.1066 151.565 46.6226C151.753 46.3297 150.661 44.1115 150.234 44.0153C149.485 43.8646 148.527 45.1787 148.121 45.6684C146.847 47.2129 146.04 49.0886 145.794 51.0756V51.0756Z" fill="#C5DF16"/>
<path opacity="0.1" d="M160.998 34.356C160.698 34.361 160.402 34.4335 160.133 34.5683C159.865 34.703 159.63 34.8965 159.446 35.1344C158.998 35.7161 158.91 36.4862 158.797 37.227C158.416 39.5739 157.579 41.8233 156.332 43.8479" fill="black"/>
<path opacity="0.1" d="M163.133 36.0259C162.718 36.0351 162.313 36.1523 161.957 36.3658C161.601 36.5794 161.307 36.882 161.103 37.2438C160.826 37.902 160.654 38.5996 160.593 39.3112C160.234 40.8888 159.542 42.3714 158.563 43.6596" fill="black"/>
<path d="M262.597 117.845V112.648C262.596 108.821 261.075 105.152 258.369 102.446C255.663 99.7411 251.993 98.2213 248.167 98.2213H42.8894C39.0629 98.2213 35.3931 99.7411 32.687 102.446C29.9809 105.152 28.4601 108.821 28.459 112.648V122.232L262.597 117.845Z" fill="#0B467E"/>
<path d="M99.9958 92.1276C99.9958 92.1276 99.4099 128.48 105.855 140.441C112.3 152.402 115.062 204.436 115.062 204.436C115.062 204.436 182.627 211.425 229.71 196.066C276.793 180.706 376.977 174.424 376.977 174.424L360.094 60.6343C360.094 60.6343 276.689 55.2857 229.242 77.9148C181.795 100.544 99.9958 92.1276 99.9958 92.1276Z" fill="#C5DF16"/>
<path opacity="0.1" d="M99.9958 92.1276C99.9958 92.1276 99.4099 128.48 105.855 140.441C112.3 152.402 115.062 204.436 115.062 204.436C115.062 204.436 182.627 211.425 229.71 196.066C276.793 180.706 376.977 174.424 376.977 174.424L360.094 60.6343C360.094 60.6343 276.689 55.2857 229.242 77.9148C181.795 100.544 99.9958 92.1276 99.9958 92.1276Z" fill="black"/>
<path d="M114.949 105.407C114.949 105.407 112.836 135.402 118.138 144.986C123.441 154.57 123.688 197.355 123.688 197.355C123.688 197.355 184.494 200.176 227.747 185.452C271.001 170.729 361.894 161.178 361.894 161.178L351.565 68.1215C351.565 68.1215 276.358 67.3473 232.464 88.0721C188.57 108.797 114.949 105.407 114.949 105.407Z" fill="#C5DF16"/>
<path opacity="0.1" d="M231.796 168.414C240.448 167.337 245.588 151.421 243.277 132.865C240.966 114.309 232.078 100.14 223.427 101.218C214.775 102.296 209.635 118.212 211.946 136.767C214.257 155.323 223.145 169.492 231.796 168.414Z" fill="black"/>
<path opacity="0.2" d="M314.368 5.20203C314.368 5.20203 233.339 25.7093 195.128 61.8062C156.918 97.9031 76.4795 114.995 76.4795 114.995C76.4795 114.995 87.0763 149.77 96.8779 159.178C106.68 168.586 125.27 217.268 125.27 217.268C125.27 217.268 191.718 203.18 231.811 174.102C271.905 145.024 365.347 108.299 365.347 108.299L314.368 5.20203Z" fill="black"/>
<path d="M75.2617 109.789C75.2617 109.789 85.8543 144.568 95.6476 153.976C105.441 163.384 124.04 212.061 124.04 212.061C124.04 212.061 190.496 197.978 230.594 168.9C270.691 139.822 364.125 103.11 364.125 103.11L313.146 0C313.146 0 232.121 20.5072 193.911 56.6041C155.7 92.7011 75.2617 109.789 75.2617 109.789Z" fill="#C5DF16"/>
<path opacity="0.1" d="M75.2617 109.789C75.2617 109.789 85.8543 144.568 95.6476 153.976C105.441 163.384 124.04 212.061 124.04 212.061C124.04 212.061 190.496 197.978 230.594 168.9C270.691 139.822 364.125 103.11 364.125 103.11L313.146 0C313.146 0 232.121 20.5072 193.911 56.6041C155.7 92.7011 75.2617 109.789 75.2617 109.789Z" fill="black"/>
<path d="M93.5547 117.841C93.5547 117.841 100.749 147.041 108.738 154.532C116.728 162.024 130.083 202.662 130.083 202.662C130.083 202.662 188.817 186.683 225.466 159.396C262.116 132.108 345.702 95.1661 345.702 95.1661L307.32 9.73889C307.32 9.73889 235.507 32.075 200.088 65.2716C164.669 98.4682 93.5547 117.841 93.5547 117.841Z" fill="#C5DF16"/>
<path opacity="0.1" d="M224.112 141.951C232.015 138.271 232.023 121.545 224.13 104.594C216.236 87.6426 203.43 76.8844 195.526 80.5649C187.622 84.2454 187.614 100.971 195.508 117.922C203.402 134.873 216.208 145.632 224.112 141.951Z" fill="black"/>
<path opacity="0.1" d="M268.138 122.947V267.335C268.138 268.975 267.815 270.598 267.188 272.113C266.56 273.628 265.64 275.005 264.48 276.164C263.321 277.323 261.944 278.243 260.429 278.87C258.914 279.497 257.29 279.82 255.65 279.819H40.9518C37.6415 279.818 34.4671 278.502 32.1268 276.161C29.7864 273.82 28.4717 270.645 28.4717 267.335V108.391C34.6238 110.676 34.6238 110.676 40.9518 110.484H255.65C258.958 110.484 262.13 111.796 264.472 114.133C266.813 116.469 268.132 119.639 268.138 122.947V122.947Z" fill="black"/>
<path d="M268.138 124.784V269.172C268.137 272.483 266.821 275.659 264.479 278C262.137 280.341 258.961 281.656 255.65 281.656H40.9518C37.6415 281.655 34.4671 280.339 32.1268 277.998C29.7864 275.657 28.4717 272.482 28.4717 269.172V110.224C34.6238 112.505 34.6238 112.505 40.9518 112.317H255.65C258.958 112.317 262.132 113.63 264.473 115.967C266.815 118.305 268.133 121.476 268.138 124.784V124.784Z" fill="#0C4E8C"/>
<path d="M268.138 176.936V223.119H223.357C217.288 223.037 211.495 220.569 207.232 216.248C202.969 211.927 200.578 206.101 200.578 200.031C200.578 193.961 202.969 188.136 207.232 183.815C211.495 179.494 217.288 177.026 223.357 176.944L268.138 176.936Z" fill="#0C4E8C"/>
<path opacity="0.1" d="M267.527 178.166V224.341H222.746C216.677 224.259 210.884 221.791 206.621 217.47C202.358 213.149 199.968 207.323 199.968 201.253C199.968 195.184 202.358 189.358 206.621 185.037C210.884 180.716 216.677 178.248 222.746 178.166H267.527Z" fill="black"/>
<path opacity="0.1" d="M225.504 210.258C230.476 210.258 234.506 206.227 234.506 201.255C234.506 196.284 230.476 192.253 225.504 192.253C220.532 192.253 216.502 196.284 216.502 201.255C216.502 206.227 220.532 210.258 225.504 210.258Z" fill="black"/>
<path d="M226.115 209.036C231.087 209.036 235.117 205.005 235.117 200.033C235.117 195.062 231.087 191.031 226.115 191.031C221.143 191.031 217.113 195.062 217.113 200.033C217.113 205.005 221.143 209.036 226.115 209.036Z" fill="#C5DF16"/>
<path d="M345.869 176.538C346.225 180.392 343.308 184.134 344.157 187.909C344.342 188.717 344.689 189.478 344.814 190.294C345.166 192.538 343.831 194.66 342.554 196.535L331.589 212.622C331.15 213.329 330.624 213.979 330.024 214.556C327.932 216.422 324.784 216.23 322.03 216.786C320.095 217.179 318.267 217.988 316.673 219.155C316.607 219.212 316.565 219.293 316.555 219.38C316.546 219.467 316.57 219.554 316.623 219.624C317.078 220.244 317.681 220.74 318.377 221.066C319.073 221.393 319.84 221.54 320.608 221.495C320.896 221.876 320.608 222.432 320.189 222.704C319.599 223.123 318.791 223.223 318.674 224.219C318.632 224.567 318.703 224.919 318.875 225.224C319.317 225.9 320.004 226.379 320.792 226.559C324.588 227.718 328.689 225.68 331.531 222.905C334.372 220.13 336.411 216.627 339.198 213.802C340.742 212.241 342.496 210.902 344.086 209.387C347.259 206.365 349.724 202.691 352.105 199.012C352.821 197.903 353.54 196.765 353.842 195.48C354.143 194.195 354.001 192.898 354.34 191.655C354.783 190.022 355.976 188.725 356.968 187.357C358.914 184.678 360.212 181.401 359.956 178.103C359.701 174.805 357.654 171.545 354.541 170.423C353.576 170.036 352.511 169.971 351.506 170.239C350.23 170.633 349.288 171.687 348.418 172.696L346.325 175.102C345.803 175.63 345.391 176.256 345.112 176.944C344.978 177.289 344.946 177.666 345.02 178.029C345.094 178.392 345.271 178.725 345.53 178.99" fill="#FBBEBE"/>
<path opacity="0.05" d="M345.869 176.538C346.225 180.392 343.308 184.134 344.157 187.909C344.342 188.717 344.689 189.478 344.814 190.294C345.166 192.538 343.831 194.66 342.554 196.535L331.589 212.622C331.15 213.329 330.624 213.979 330.024 214.556C327.932 216.422 324.784 216.23 322.03 216.786C320.095 217.179 318.267 217.988 316.673 219.155C316.607 219.212 316.565 219.293 316.555 219.38C316.546 219.467 316.57 219.554 316.623 219.624C317.078 220.244 317.681 220.74 318.377 221.066C319.073 221.393 319.84 221.54 320.608 221.495C320.896 221.876 320.608 222.432 320.189 222.704C319.599 223.123 318.791 223.223 318.674 224.219C318.632 224.567 318.703 224.919 318.875 225.224C319.317 225.9 320.004 226.379 320.792 226.559C324.588 227.718 328.689 225.68 331.531 222.905C334.372 220.13 336.411 216.627 339.198 213.802C340.742 212.241 342.496 210.902 344.086 209.387C347.259 206.365 349.724 202.691 352.105 199.012C352.821 197.903 353.54 196.765 353.842 195.48C354.143 194.195 354.001 192.898 354.34 191.655C354.783 190.022 355.976 188.725 356.968 187.357C358.914 184.678 360.212 181.401 359.956 178.103C359.701 174.805 357.654 171.545 354.541 170.423C353.576 170.036 352.511 169.971 351.506 170.239C350.23 170.633 349.288 171.687 348.418 172.696L346.325 175.102C345.803 175.63 345.391 176.256 345.112 176.944C344.978 177.289 344.946 177.666 345.02 178.029C345.094 178.392 345.271 178.725 345.53 178.99" fill="black"/>
<path d="M354.168 275.768C351.774 277.229 348.79 277.316 346.007 276.977C345.559 276.923 345.028 276.889 344.752 277.237C344.333 277.739 344.827 278.492 345.338 278.882C346.979 280.114 348.908 280.908 350.941 281.188C352.757 281.445 354.59 281.567 356.424 281.552C361.446 281.64 366.468 281.723 371.411 281.003C371.704 280.981 371.989 280.899 372.248 280.761C372.567 280.537 372.788 280.2 372.867 279.819C373.206 278.53 372.554 277.149 371.566 276.253C370.578 275.358 369.31 274.86 368.071 274.378L363.719 272.683C362.698 272.286 361.061 271.231 359.952 271.315C357.868 271.466 355.897 274.755 354.168 275.768Z" fill="#3F3D56"/>
<path opacity="0.05" d="M354.168 275.768C351.774 277.229 348.79 277.316 346.007 276.977C345.559 276.923 345.028 276.889 344.752 277.237C344.333 277.739 344.827 278.492 345.338 278.882C346.979 280.114 348.908 280.908 350.941 281.188C352.757 281.445 354.59 281.567 356.424 281.552C361.446 281.64 366.468 281.723 371.411 281.003C371.704 280.981 371.989 280.899 372.248 280.761C372.567 280.537 372.788 280.2 372.867 279.819C373.206 278.53 372.554 277.149 371.566 276.253C370.578 275.358 369.31 274.86 368.071 274.378L363.719 272.683C362.698 272.286 361.061 271.231 359.952 271.315C357.868 271.466 355.897 274.755 354.168 275.768Z" fill="black"/>
<path d="M357.219 217.988C355.407 220.398 353.532 223.181 353.98 226.165C354.223 227.773 355.122 229.191 355.784 230.677C356.679 232.694 357.148 234.862 357.608 237.022C358.286 240.177 358.969 243.341 359.383 246.547C359.856 250.167 357.634 260.643 357.428 264.288C357.378 265.167 357.274 266.117 356.663 266.749C356.424 267 356.106 267.201 355.997 267.527C355.933 267.842 355.985 268.169 356.144 268.448C357.165 270.75 359.253 272.466 361.584 273.445C363.915 274.424 369.536 276.115 372.076 276.203C372.411 276.24 372.75 276.196 373.064 276.073C373.402 275.867 373.668 275.562 373.826 275.199C375.646 271.717 373.897 259.337 373.922 255.407C373.947 252.13 374.721 248.874 374.579 245.601C374.462 242.973 373.742 240.403 373.504 237.783C373.085 233.49 373.872 229.175 374.663 224.931C375.266 221.675 375.872 218.419 376.647 215.205C377.12 213.242 377.668 211.262 378.739 209.559C379.576 208.207 380.752 207.077 381.727 205.792C384.434 202.244 385.637 197.773 385.076 193.346C385.017 192.927 378.798 194.923 378.25 195.162C376.013 196.109 373.954 197.433 372.164 199.075C370.725 200.448 369.591 202.281 368.331 203.817C366.548 205.99 364.787 208.179 363.049 210.383C361.065 212.903 359.122 215.438 357.219 217.988Z" fill="#C5DF16"/>
<path opacity="0.05" d="M357.219 217.841C355.407 220.252 353.532 223.039 353.98 226.019C354.223 227.63 355.122 229.049 355.784 230.535C356.679 232.548 357.148 234.72 357.608 236.875C358.286 240.035 358.969 243.199 359.383 246.401C359.856 250.025 357.634 260.496 357.428 264.141C357.378 265.02 357.274 265.975 356.663 266.607C356.424 266.853 356.106 267.054 355.997 267.381C355.933 267.695 355.985 268.022 356.144 268.302C357.165 270.608 359.253 272.319 361.584 273.324C363.915 274.328 369.536 275.203 372.076 275.287C372.411 275.323 372.75 275.279 373.064 275.157C373.403 274.953 373.669 274.649 373.826 274.286C375.646 270.804 373.897 259.22 373.922 255.286C373.947 252.005 374.721 248.753 374.579 245.476C374.462 242.847 373.742 240.278 373.504 237.662C373.085 233.364 373.872 229.049 374.663 224.805C375.266 221.553 375.872 218.297 376.647 215.079C377.12 213.116 377.668 211.137 378.739 209.433C379.576 208.081 380.752 206.951 381.727 205.667C384.435 202.118 385.637 197.648 385.076 193.22C385.017 192.801 378.798 194.798 378.25 195.036C376.013 195.987 373.955 197.311 372.164 198.954C370.725 200.322 369.591 202.155 368.331 203.691C366.548 205.865 364.787 208.055 363.049 210.262C361.065 212.762 359.122 215.288 357.219 217.841Z" fill="black"/>
<path d="M337.055 164.895C342.665 164.895 347.212 160.347 347.212 154.738C347.212 149.128 342.665 144.58 337.055 144.58C331.445 144.58 326.898 149.128 326.898 154.738C326.898 160.347 331.445 164.895 337.055 164.895Z" fill="#FBBEBE"/>
<path d="M346.204 154.311C347.142 155.808 348.373 157.1 349.822 158.111C351.27 159.122 352.908 159.831 354.637 160.195L353.871 162.978C352.549 167.758 351.063 172.813 347.371 176.128C347.79 174.508 347.254 172.78 346.342 171.374C345.43 169.967 344.149 168.862 342.893 167.77L337.047 162.706C336.878 162.569 336.736 162.401 336.628 162.212C336.484 161.855 336.484 161.456 336.628 161.099C337.373 158.78 339.499 157.332 341.232 155.767C342.101 154.958 342.878 154.054 343.546 153.072C344.714 151.406 345.438 153.08 346.204 154.311Z" fill="#FBBEBE"/>
<path d="M323.675 144.526L323.445 142.617C325.048 143.036 326.571 141.671 327.597 140.261C328.622 138.851 329.572 137.189 331.133 136.599C333.029 135.888 335.038 137.018 336.85 137.972C338.879 139.098 341.106 139.822 343.408 140.106C343.776 140.118 344.14 140.177 344.492 140.282C345.672 140.7 346.233 142.182 346.405 143.525C346.576 144.869 346.53 146.296 347.112 147.493C347.531 148.401 348.309 149.075 348.786 149.971C350.042 152.373 348.828 155.658 350.138 158.014L346.882 155.03C346.585 154.758 346.166 154.474 345.836 154.704C345.576 154.888 345.555 155.286 345.451 155.604C345.137 156.533 343.973 156.809 343.132 156.441C342.291 156.073 341.676 155.273 341.04 154.545C339.6 152.846 337.884 151.352 335.875 150.628C334.994 150.298 334.054 150.16 333.116 150.222C332.178 150.284 331.264 150.545 330.434 150.988C328.915 151.846 327.802 153.846 325.94 153.917C323.387 154.013 322.324 149.259 321.143 147.38C321.575 147.055 321.879 146.588 322.001 146.062C322.124 145.536 322.057 144.983 321.813 144.501C321.985 144.429 323.638 144.233 323.675 144.526Z" fill="#464353"/>
<path d="M198.041 85.1427C197.225 85.8686 196.471 86.6609 195.785 87.5115C195.096 88.3739 194.729 89.45 194.748 90.5541C194.751 90.8743 194.853 91.1856 195.04 91.4455C195.136 91.5699 195.268 91.6614 195.418 91.7072C195.568 91.753 195.729 91.7507 195.878 91.7008C196.046 91.6151 196.19 91.4884 196.296 91.3325C196.738 90.801 197.208 90.2925 197.702 89.8091C197.882 89.6292 198.121 89.4409 198.363 89.5078C198.472 89.5464 198.57 89.6111 198.648 89.6961C198.93 89.9396 199.135 90.2594 199.238 90.6169C199.385 91.2572 199.012 91.8975 198.589 92.3998C198.167 92.902 197.669 93.3833 197.497 94.0152C197.432 94.1821 197.432 94.3673 197.497 94.5342C197.578 94.6549 197.691 94.7506 197.824 94.8104C198.423 95.1404 199.087 95.3346 199.77 95.3795C200.453 95.4243 201.137 95.3186 201.774 95.0699C202.611 94.7309 203.356 94.1491 204.219 93.8478C204.592 93.7457 204.954 93.6054 205.298 93.4293C205.545 93.2652 205.757 93.0538 205.921 92.8074C206.086 92.561 206.2 92.2845 206.257 91.9938C206.365 91.4129 206.387 90.819 206.319 90.2318C206.215 87.9583 205.728 85.7186 204.88 83.6068C204.831 83.4705 204.747 83.3494 204.637 83.2552C204.511 83.1785 204.366 83.1393 204.219 83.1422C203.147 83.0292 201.389 82.481 200.356 82.8785C199.994 83.0768 199.682 83.3544 199.443 83.6905C199.251 83.9039 198.041 84.8623 198.041 85.1427Z" fill="#A1616A"/>
<path d="M197.702 84.1969C197.702 83.1757 196.447 80.7107 198.443 80.5474C198.443 79.4551 196.899 78.7771 197.188 77.6178C197.28 77.2328 197.606 76.9189 197.644 76.5255C197.769 75.4081 195.752 74.8012 196.087 73.7298C196.212 73.3113 196.656 73.0686 196.752 72.6543C196.978 71.6875 195.25 71.2564 195.216 70.2645C195.216 69.9297 195.405 69.6158 195.388 69.281C195.388 68.8625 195.024 68.5444 194.823 68.1803C194.3 67.247 194.555 65.8032 193.601 65.3219C194.233 65.3763 194.438 64.4388 194.178 63.8654C193.919 63.2921 193.387 62.794 193.383 62.1579C193.415 61.9274 193.415 61.6937 193.383 61.4632C193.207 60.8521 192.207 60.8019 192.04 60.2076C192.018 59.9795 192.011 59.7503 192.019 59.5213C191.952 59.0483 191.466 58.747 191.01 58.6131C190.536 58.5326 190.08 58.3697 189.663 58.1318C189.37 57.91 189.031 57.5417 188.717 57.7133C188.6 57.7844 188.541 57.9183 188.453 58.0188C188.076 58.4582 187.357 58.2657 186.884 57.9435C185.486 56.9934 184.791 55.2901 184.494 53.6286C184.197 51.9671 184.205 50.2512 183.833 48.6064C183.719 48.0938 183.568 47.5902 183.381 47.0997C183.222 46.6812 182.711 46.0242 182.678 45.6015C182.602 44.6389 184.594 45.2959 185.352 45.3922C186.087 45.464 186.815 45.6041 187.524 45.8107C188.281 46.0968 189.023 46.4223 189.746 46.7859C192.768 48.1209 196.417 48.2841 198.845 50.5274C199.644 51.264 200.318 52.2307 201.356 52.5655C201.832 52.6568 202.302 52.7784 202.762 52.9296C203.913 53.4695 204.093 54.9971 204.721 56.102C204.918 56.3938 205.09 56.7018 205.236 57.0227C205.357 57.4012 205.413 57.7973 205.403 58.1946L205.491 61.0949C205.633 65.9538 205.775 70.8253 205.256 75.655C205.089 77.2496 204.838 78.8901 205.311 80.4219C205.436 80.8404 205.612 81.2338 205.729 81.6565C205.833 82.1521 205.886 82.6569 205.888 83.1632L205.955 85.0423C205.979 85.1884 205.946 85.3379 205.863 85.4608C205.793 85.5176 205.712 85.558 205.624 85.579C205.536 85.6 205.445 85.6011 205.357 85.5822C202.741 85.3478 200.096 83.8746 197.627 84.7661" fill="#0C4E8C"/>
<path d="M317.071 228.585C334.166 228.585 348.024 226.582 348.024 224.111C348.024 221.64 334.166 219.637 317.071 219.637C299.976 219.637 286.118 221.64 286.118 224.111C286.118 226.582 299.976 228.585 317.071 228.585Z" fill="#504F60"/>
<path d="M343.701 224.328C343.157 221.997 342.818 219.95 342.818 219.95C342.818 219.95 342.944 217.414 341.805 215.51V214.874V210.186C342.129 209.335 342.526 208.513 342.99 207.73C343.827 206.257 342.99 200.858 342.99 200.858C342.99 200.858 339.863 193.245 340.621 188.415C341.378 183.586 334.201 166.971 334.201 166.971C334.245 165.368 334.471 163.776 334.875 162.225C334.951 161.899 334.982 161.563 334.967 161.229C334.967 161.187 334.967 161.149 334.967 161.107C334.967 161.065 334.967 161.132 334.967 161.145C334.858 157.96 332.338 151.992 332.338 151.992L332.677 140.617C332.677 140.617 334.285 133.921 331.665 124.902C330.748 121.758 330.162 119.243 329.79 117.301C329.748 117.084 329.706 116.883 329.673 116.669C335.067 115.832 339.19 115.163 339.19 115.163C339.19 115.163 336.059 102.067 333.946 99.7739C331.832 97.4804 330.141 90.2778 330.141 90.2778C330.141 90.2778 329.041 81.0328 330.819 78.3292C332.598 75.6256 332.849 70.9633 332.849 70.9633C332.849 70.9633 336.904 68.0337 337.415 66.707C337.926 65.3803 338.767 62.4507 338.767 60.898C338.767 59.3453 338.26 57.9684 338.428 57.1314C338.595 56.2944 337.243 53.2015 337.921 51.7284C338.097 51.2758 338.188 50.7949 338.189 50.3096C338.191 50.2957 338.191 50.2817 338.189 50.2677C338.189 50.2677 338.189 50.2677 338.189 50.2677C338.196 48.9786 338.076 47.6919 337.834 46.4258C336.66 45.4352 335.291 44.7036 333.816 44.2788L333.728 43.9272L333.498 43.0065C333.369 42.9216 333.237 42.8434 333.1 42.7721V42.4373L333.062 41.1065L333.699 38.1183C334.954 32.9203 328.011 32.1461 328.011 32.1461C327.59 31.3487 326.89 30.7348 326.044 30.4218C324.65 29.9321 325.814 38.2396 326.462 38.7921C326.952 39.2106 328.467 41.797 329.2 43.0777L329.317 43.2869C329.202 43.39 329.096 43.5019 328.999 43.6217L329.262 45.4255L329.304 45.7017C328.844 46.2732 328.47 46.9091 328.195 47.5893C328.195 47.5893 329.451 48.9787 329.212 50.5189C328.974 52.059 329.601 54.0135 329.631 54.1181C329.555 54.0302 328.664 53.0676 327.772 53.302C326.881 53.5363 324.391 54.2855 324.391 54.2855C324.391 54.2855 322.533 54.6119 322.717 55.0221C322.901 55.4322 321.461 57.2318 321.461 57.2318L316.464 52.4942C316.414 52.352 316.36 52.2097 316.318 52.0757C316.114 51.3927 315.974 50.6921 315.899 49.9832C316.444 49.8537 316.978 49.6845 317.498 49.4768C318.023 49.2965 318.497 48.9921 318.879 48.5895C319.385 47.991 319.482 47.1791 319.687 46.4341C320.08 44.9777 320.942 43.6845 321.541 42.2992C322.554 39.9584 322.881 37.3775 322.482 34.858C322.406 34.0816 322.143 33.3351 321.717 32.6818C320.9 31.5601 319.419 31.104 318.343 30.2083C317.268 29.3127 316.573 27.9442 315.317 27.2787C314.183 26.6719 312.806 26.743 311.526 26.9523C309.024 27.3647 306.622 28.239 304.44 29.5303C303.712 29.9488 302.908 30.4636 302.071 30.3088C301.352 30.179 300.816 29.6057 300.364 29.0532C300.369 29.0304 300.376 29.008 300.385 28.9863C300.364 28.9659 300.346 28.9434 300.33 28.9193C299.801 30.0947 299.535 31.3718 299.552 32.6608C299.552 32.8617 299.552 33.0793 299.577 33.2593V33.4686C299.577 33.5272 299.577 33.5857 299.577 33.6402C299.577 33.7294 299.564 33.8181 299.539 33.9038C299.434 34.1598 299.274 34.3898 299.071 34.5776C298.917 34.7521 298.777 34.9382 298.652 35.1342C298.652 35.0673 298.694 35.0003 298.719 34.9292C298.4 35.3952 298.22 35.9425 298.2 36.507C298.177 36.9179 298.312 37.3222 298.577 37.637C298.827 37.8803 299.101 38.0989 299.393 38.2899C299.293 38.8423 299.243 39.4025 299.242 39.9639C299.252 41.6281 299.69 43.2618 300.516 44.7068C301.341 46.1519 302.526 47.3595 303.955 48.2128C304.013 48.3509 304.068 48.4932 304.122 48.6314C304.762 50.3054 305.244 52.2724 305.03 54.072C305.03 54.2018 304.993 54.3357 304.972 54.4654C304.951 54.5952 304.846 54.6036 304.792 54.6747C304.792 54.6747 296.534 54.7584 294.593 53.0006C292.651 51.2429 289.688 57.2988 289.688 57.2988C289.688 57.2988 286.729 57.8722 286.134 57.2988C285.54 56.7254 282.079 57.2193 282.079 57.2193C280.661 55.9582 278.816 55.2847 276.919 55.336C275.769 54.4625 274.501 53.7578 273.152 53.2434V53.2434L273.06 53.2099C272.465 52.9929 271.828 52.9128 271.198 52.9755C271.198 52.9755 267.138 49.6274 265.954 47.8194C264.769 46.0115 259.132 39.3361 259.107 39.3068V38.9846L259.044 38.0136C258.876 38.0399 258.707 38.0539 258.538 38.0555C258.508 37.9592 258.466 37.8462 258.425 37.7165C258.1 36.7694 257.699 35.8499 257.228 34.9668C257.228 34.9668 257.228 33.7406 257.583 33.4309C257.939 33.1212 257.437 28.6222 257.437 28.6222C257.437 28.6222 253.779 20.0719 250.502 26.4543C250.502 26.4543 244.308 30.585 249.506 35.3979C249.506 35.3979 251.599 36.4023 251.875 37.1975C252.067 37.7123 252.77 39.1562 253.243 40.1271L253.457 40.5456L253.398 40.5959L253.473 41.3994L253.507 41.7091C252.528 42.2657 251.862 42.8182 252.025 43.2325C252.314 43.9415 252.512 44.6839 252.616 45.4423C252.616 45.4423 259.806 54.4487 260.735 58.2949C260.735 58.2949 280.016 69.7538 286.356 70.5699L285.235 76.2826C285.071 77.8328 284.987 79.3903 284.983 80.9491C285.067 82.1753 284.222 87.7416 284.222 87.7416C284.222 87.7416 283.121 95.9277 282.192 97.0745C281.263 98.2212 281.43 103.13 281.43 103.13C281.211 105.481 280.791 107.808 280.175 110.086C279.246 113.196 279.919 117.046 279.919 117.046C279.919 117.046 276.709 124.412 284.402 119.419C284.402 119.419 288.168 119.185 292.529 119.034C292.529 119.176 292.529 119.323 292.529 119.452C292.529 120.013 292.529 120.62 292.5 121.256C292.441 125.475 292.416 131.301 292.609 135.687C292.948 143.463 295.317 158.851 295.317 158.851V166.598C295.164 167.325 295.088 168.065 295.091 168.808C295.041 171.534 295.766 174.217 297.183 176.546L297.777 181.702C297.777 181.702 299.167 185.101 299.192 187.143C299.187 187.308 299.167 187.471 299.133 187.633C299.079 187.893 299.057 188.158 299.067 188.424C298.987 190.767 300.397 196.375 300.397 196.375C300.397 196.375 300.481 202.021 301.326 202.352C302.051 202.632 300.36 205.604 299.858 206.457C299.844 206.405 299.834 206.352 299.828 206.298L299.724 206.466C299.549 206.923 299.46 207.408 299.46 207.897C299.412 208.283 299.475 208.674 299.641 209.025C299.807 209.376 300.069 209.673 300.397 209.881C302.004 210.864 302.867 211.681 301.502 212.007C301 212.085 300.503 212.19 300.012 212.321C300.012 212.258 299.962 212.191 299.941 212.133C299.749 212.208 299.588 212.347 299.487 212.527C299.385 212.707 299.349 212.917 299.385 213.12C299.398 213.784 299.568 214.435 299.883 215.02C301.234 218.05 302.172 219.205 302.172 219.205L302.821 219.134C302.725 219.382 302.598 219.617 302.444 219.833C302.197 220.184 301.87 220.471 301.49 220.67C301.135 220.882 300.74 221.018 300.33 221.068C299.872 221.083 299.422 221.194 299.01 221.395C298.597 221.595 298.231 221.88 297.937 222.231C297.099 223.324 296.564 224.809 298.229 226.115L304.277 228.208C304.277 228.208 314.681 229.56 314.129 227.224C313.576 224.889 313.242 222.847 313.242 222.847C313.286 221.421 313 220.004 312.405 218.707C312.295 218.496 312.172 218.292 312.036 218.096L312.405 218.059C312.405 218.059 313.166 212.898 314.179 211.919C314.413 211.693 314.468 211.501 314.413 211.383C314.518 211.103 314.25 210.94 313.911 210.844L313.836 211.049C313.504 210.976 313.166 210.939 312.827 210.936C312.827 210.936 312.488 208.236 313.589 207.253C313.678 207.141 313.743 207.011 313.779 206.873C313.816 206.735 313.824 206.591 313.802 206.449C313.811 206.079 313.771 205.709 313.685 205.348C313.674 205.372 313.662 205.394 313.648 205.415C313.095 202.963 311.22 199.067 311.22 199.067C311.22 199.067 311.136 196.614 311.814 195.631C312.492 194.647 311.727 182.288 311.727 182.288C311.727 182.288 311.982 176.316 311.22 173.533C310.458 170.75 312.149 167.473 312.149 167.473C312.149 167.473 312.149 167.41 312.149 167.297V167.255L312.053 166.314C312.051 166.333 312.051 166.353 312.053 166.372C311.881 164.79 311.559 161.923 311.321 160.601C310.982 158.718 311.409 149.719 311.409 149.719L312.928 145.869L315.636 152.503L318.511 161.342C318.511 161.342 319.934 163.208 319.967 165.108C319.967 165.2 319.967 165.292 319.967 165.384C319.944 165.58 319.933 165.777 319.934 165.975C319.883 167.091 320.189 168.195 320.808 169.126C320.808 169.126 321.57 173.311 322.754 174.362C323.939 175.412 323.939 177.471 323.939 177.471C323.939 177.471 325.374 183.531 326.031 184.586C326.601 185.482 326.63 187.934 326.626 188.7C326.626 188.838 326.626 188.918 326.626 188.918C326.626 188.918 326.827 191.085 326.818 192.902C326.818 193.128 326.818 193.345 326.818 193.551C326.82 193.535 326.82 193.52 326.818 193.504C326.818 194.001 326.759 194.495 326.642 194.978L326.617 195.061C326.617 194.957 326.617 194.856 326.647 194.756C326.352 195.989 326.212 197.254 326.228 198.522C326.19 200.699 326.521 203.277 327.839 204.8C330.124 207.42 331.56 207.094 331.56 207.094C331.56 207.094 330.464 210.366 329.108 211.024C329.056 211.048 329.008 211.079 328.965 211.116C328.965 211.049 328.94 210.986 328.932 210.923C328.781 211.086 328.665 211.279 328.593 211.49C328.521 211.7 328.494 211.923 328.513 212.145C328.417 213.585 329.325 215.912 330.187 216.996C330.507 217.309 330.9 217.539 331.33 217.665C331.262 217.713 331.19 217.757 331.116 217.795C330.966 217.878 330.811 217.952 330.652 218.017C330.432 218.11 330.199 218.171 329.961 218.197C329.502 218.209 329.051 218.319 328.639 218.52C328.226 218.721 327.861 219.007 327.567 219.36C326.73 220.448 326.195 221.934 327.86 223.24L333.908 225.333C333.908 225.333 344.245 226.659 343.701 224.328Z" fill="url(#paint0_linear)"/>
<path d="M303.98 228.195L298.121 226.103C296.505 224.797 297.02 223.311 297.836 222.219C298.117 221.871 298.469 221.586 298.869 221.386C299.269 221.185 299.708 221.072 300.155 221.055C300.552 221.005 300.933 220.869 301.272 220.658C301.644 220.456 301.962 220.169 302.201 219.821C302.629 219.142 302.859 218.358 302.867 217.557C302.867 217.557 309.295 215.673 311.053 217.557C311.367 217.898 311.629 218.282 311.831 218.699C312.415 219.999 312.701 221.413 312.668 222.838C312.668 222.838 312.995 224.881 313.526 227.216C314.058 229.551 303.98 228.195 303.98 228.195Z" fill="#2D293D"/>
<path d="M332.623 225.308L326.764 223.215C325.148 221.909 325.663 220.423 326.479 219.335C326.758 218.986 327.109 218.7 327.509 218.5C327.908 218.299 328.347 218.187 328.794 218.172C329.025 218.148 329.251 218.087 329.463 217.992C329.618 217.927 329.769 217.853 329.915 217.77C331.552 216.87 331.51 214.661 331.51 214.661C331.51 214.661 337.934 212.777 339.696 214.661C339.932 214.916 340.138 215.196 340.311 215.498C341.412 217.402 341.291 219.942 341.291 219.942C341.291 219.942 341.617 221.989 342.128 224.32C342.638 226.651 332.623 225.308 332.623 225.308Z" fill="#2D293D"/>
<path opacity="0.1" d="M311.057 217.552C311.371 217.893 311.633 218.278 311.835 218.695L302.209 219.812C302.637 219.134 302.867 218.35 302.875 217.548C302.875 217.548 309.299 215.669 311.057 217.552Z" fill="black"/>
<path opacity="0.1" d="M340.32 215.506V217.31C338.821 219.775 331.577 219.235 329.472 218C329.626 217.935 329.777 217.861 329.924 217.778C331.56 216.879 331.518 214.669 331.518 214.669C331.518 214.669 337.942 212.785 339.704 214.669C339.94 214.924 340.147 215.205 340.32 215.506V215.506Z" fill="black"/>
<path d="M341.462 207.73C341.014 208.516 340.632 209.338 340.32 210.187V216.653C338.679 219.352 330.171 218.452 329.02 216.979C327.869 215.506 326.668 211.672 327.961 211.007C329.254 210.341 330.334 207.077 330.334 207.077C330.334 207.077 328.94 207.403 326.731 204.784C324.521 202.164 325.178 196.355 325.588 194.965C325.998 193.576 325.588 188.909 325.588 188.909C325.588 188.909 325.672 185.632 325.019 184.569C324.366 183.506 322.972 177.454 322.972 177.454C322.972 177.454 322.972 175.408 321.826 174.345C320.679 173.282 319.942 169.105 319.942 169.105C319.272 168.061 318.984 166.818 319.126 165.585C319.369 163.539 317.733 161.329 317.733 161.329L314.949 152.486L312.33 145.857L310.856 149.703C310.856 149.703 310.438 158.705 310.777 160.584C311.116 162.463 311.614 167.46 311.614 167.46C311.614 167.46 309.978 170.733 310.714 173.516C311.451 176.299 311.183 182.28 311.183 182.28C311.183 182.28 311.919 194.635 311.262 195.618C310.605 196.602 310.689 199.058 310.689 199.058C310.689 199.058 314.037 206.257 312.982 207.24C311.928 208.224 312.246 210.923 312.246 210.923C312.246 210.923 314.535 210.923 313.556 211.907C312.576 212.89 311.836 218.046 311.836 218.046L301.938 219.206C301.938 219.206 301.034 218.063 299.724 215.02C298.414 211.978 299.967 212.321 301.285 211.99C302.603 211.66 301.77 210.848 300.214 209.864C298.657 208.881 299.561 206.671 299.561 206.671C299.561 206.671 301.934 202.662 301.113 202.335C300.293 202.009 300.214 196.359 300.214 196.359C300.214 196.359 298.577 189.663 298.987 187.846C299.397 186.03 297.677 181.711 297.677 181.711L297.104 176.555C295.353 173.629 294.714 170.17 295.304 166.812V158.86C295.304 158.86 293.011 143.475 292.684 135.699C292.475 130.719 292.534 123.922 292.601 119.683C292.643 117.306 292.684 115.728 292.684 115.728L328.041 112.045C328.041 112.045 328.007 113.677 328.681 117.297C329.045 119.239 329.61 121.754 330.497 124.897C333.034 133.9 331.481 140.608 331.481 140.608L331.15 151.988C331.15 151.988 334.26 159.596 333.607 162.216C333.212 163.772 332.99 165.366 332.946 166.971C332.946 166.971 339.901 183.586 339.165 188.415C338.428 193.245 341.454 200.858 341.454 200.858C341.454 200.858 342.283 206.257 341.462 207.73Z" fill="#0C4E8C"/>
<path opacity="0.05" d="M321.248 165.092L332.012 163.656C332.012 163.656 325.914 169.879 321.248 165.092Z" fill="black"/>
<path opacity="0.1" d="M330.455 153.139C330.455 153.139 330.824 156.947 328.492 158.379C328.492 158.379 332.665 157.726 330.455 153.139Z" fill="black"/>
<path opacity="0.1" d="M329.794 141.027C329.794 141.027 320.796 148.435 317.523 147.819C314.25 147.204 329.794 141.027 329.794 141.027Z" fill="black"/>
<path opacity="0.1" d="M307.906 168.565C307.906 168.565 301.071 170.118 300.866 172.863C300.661 175.609 307.906 168.565 307.906 168.565Z" fill="black"/>
<path opacity="0.05" d="M309.408 202.699C309.408 202.699 299.753 204.499 302.494 205.725C305.236 206.951 309.739 207.935 309.739 207.935C309.739 207.935 312.857 208.098 309.408 202.699Z" fill="black"/>
<g opacity="0.05">
<path opacity="0.05" d="M300.544 207.675C300.301 207.524 300.096 207.319 299.943 207.077C299.79 206.835 299.694 206.562 299.661 206.278L299.56 206.449C299.56 206.449 298.661 208.659 300.217 209.638C300.393 209.751 300.565 209.864 300.72 209.973C301.008 209.919 301.318 209.877 301.615 209.802C302.934 209.475 302.101 208.659 300.544 207.675Z" fill="black"/>
<path opacity="0.05" d="M312.982 207.018C313.25 206.776 313.242 206.148 313.078 205.344C312.66 205.976 312.538 206.964 312.53 207.713C312.632 207.453 312.785 207.217 312.982 207.018V207.018Z" fill="black"/>
<path opacity="0.05" d="M311.497 166.301C311.141 167.269 310.921 168.282 310.844 169.31C311.03 168.6 311.281 167.908 311.593 167.243L311.497 166.301Z" fill="black"/>
<path opacity="0.05" d="M333.611 162.007C333.675 161.713 333.705 161.412 333.699 161.111C333.577 161.722 333.494 162.287 333.431 162.786C333.485 162.53 333.544 162.287 333.611 162.007Z" fill="black"/>
<path opacity="0.05" d="M311.266 195.4C311.4 195.199 311.476 194.521 311.509 193.58C311.206 194.309 311.046 195.088 311.036 195.877C311.093 195.71 311.171 195.55 311.266 195.4V195.4Z" fill="black"/>
<path opacity="0.05" d="M313.275 210.835C312.768 212.477 312.391 214.156 312.149 215.857L302.251 217C302.251 217 301.347 215.857 300.037 212.815C299.932 212.58 299.838 212.34 299.757 212.095C299.163 212.367 298.92 212.982 299.707 214.778C301.017 217.808 301.925 218.963 301.925 218.963L311.823 217.816C311.823 217.816 312.559 212.66 313.539 211.676C314.041 211.204 313.731 210.957 313.275 210.835Z" fill="black"/>
<path opacity="0.05" d="M300.218 196.137C300.218 196.137 300.297 201.783 301.117 202.109C301.536 201.176 301.808 200.289 301.44 200.142C300.603 199.816 300.54 194.166 300.54 194.166C300.54 194.166 298.903 187.47 299.314 185.653C299.724 183.837 298.004 179.518 298.004 179.518L297.43 174.362C295.679 171.436 295.04 167.977 295.631 164.619V156.667C295.631 156.667 293.337 141.282 293.011 133.506C292.801 128.526 292.86 121.729 292.927 117.49C292.927 116.724 292.952 116.046 292.965 115.472L292.684 115.502C292.684 115.502 292.638 117.075 292.601 119.457C292.534 123.696 292.471 130.493 292.684 135.469C293.011 143.245 295.3 158.634 295.3 158.634V166.586C294.713 169.943 295.353 173.4 297.104 176.324L297.673 181.481C297.673 181.481 299.393 185.816 298.983 187.62C298.573 189.424 300.218 196.137 300.218 196.137Z" fill="black"/>
<path opacity="0.05" d="M329.354 214.794C328.55 213.63 328.014 212.302 327.785 210.906C326.776 211.819 327.936 215.359 329.041 216.765C330.183 218.239 338.696 219.138 340.34 216.435V214.878C338.11 217.067 330.434 216.188 329.354 214.794Z" fill="black"/>
<path opacity="0.05" d="M341.793 205.545C341.344 206.331 340.96 207.153 340.646 208.002V209.161C340.834 208.743 341.098 208.182 341.483 207.521C341.742 206.876 341.865 206.185 341.843 205.491C341.843 205.491 341.805 205.529 341.793 205.545Z" fill="black"/>
<path opacity="0.05" d="M329.857 206.838C330.168 206.208 330.438 205.558 330.664 204.892C330.664 204.892 329.271 205.219 327.061 202.599C325.454 200.695 325.362 197.095 325.592 194.743C325.174 196.137 324.525 201.946 326.735 204.566C328.178 206.278 329.271 206.73 329.857 206.838Z" fill="black"/>
<path opacity="0.05" d="M325.588 188.687C325.732 190.3 325.787 191.919 325.751 193.538C325.792 193.282 325.848 193.029 325.918 192.78C326.337 191.387 325.918 186.725 325.918 186.725C325.918 186.725 326.002 183.448 325.345 182.385C324.688 181.322 323.319 175.261 323.319 175.261C323.319 175.261 323.319 173.215 322.173 172.152C321.026 171.089 320.289 166.912 320.289 166.912C319.613 165.87 319.317 164.627 319.452 163.392C319.699 161.346 318.063 159.136 318.063 159.136L315.28 150.297L312.66 143.668L311.183 147.518C311.183 147.518 311.183 148.004 311.132 148.774L312.329 145.647L314.949 152.264L317.732 161.103C317.732 161.103 319.369 163.313 319.122 165.359C318.987 166.594 319.282 167.837 319.959 168.879C319.959 168.879 320.695 173.064 321.842 174.119C322.989 175.174 322.985 177.228 322.985 177.228C322.985 177.228 324.378 183.284 325.031 184.343C325.684 185.402 325.588 188.687 325.588 188.687Z" fill="black"/>
</g>
<path d="M332.46 38.1058L331.845 41.094L331.882 42.4248L331.907 43.4042L328.492 43.7557L328.111 43.0484C327.404 41.7678 325.935 39.1646 325.462 38.7628C324.83 38.2355 323.704 29.9238 325.044 30.4176C325.868 30.736 326.545 31.3489 326.944 32.1377C326.944 32.1377 333.669 32.9078 332.46 38.1058Z" fill="#FFCDD3"/>
<path opacity="0.1" d="M331.908 43.4042L328.492 43.7557L328.112 43.0484C328.571 42.5255 329.197 42.178 329.884 42.065C330.571 41.9521 331.276 42.0807 331.878 42.429L331.908 43.4042Z" fill="black"/>
<path d="M332.77 45.0239L328.267 46.066L328.17 45.3963L327.915 43.5925C327.915 43.5925 329.698 41.2154 332.276 42.9983L332.502 43.9148L332.77 45.0239Z" fill="#C5DF16"/>
<path d="M259.822 38.4322L255.014 41.0103L254.595 40.1063C254.139 39.1479 253.457 37.704 253.268 37.1767C252.984 36.3815 250.979 35.377 250.979 35.377C245.957 30.5683 251.942 26.4334 251.942 26.4334C255.114 20.051 258.638 28.6013 258.638 28.6013C258.638 28.6013 259.132 33.1087 258.784 33.41C258.437 33.7114 258.437 34.946 258.437 34.946C258.895 35.8305 259.283 36.7499 259.596 37.6956C259.743 38.1518 259.822 38.4322 259.822 38.4322Z" fill="#FFCDD3"/>
<path opacity="0.1" d="M259.822 38.4322L255.014 41.0103L254.595 40.1063C255.273 39.5371 257.68 37.5952 258.471 37.6747C258.848 37.7219 259.23 37.7317 259.609 37.704C259.743 38.1518 259.822 38.4322 259.822 38.4322Z" fill="black"/>
<path d="M260.312 39.8844L254.909 42.5462L254.8 41.3869L254.725 40.5834C254.725 40.5834 257.855 37.9007 258.78 38.0053C259.248 38.0731 259.723 38.0731 260.191 38.0053L260.253 38.9763L260.312 39.8844Z" fill="#C5DF16"/>
<path d="M319.365 57.956C319.365 57.956 295.811 60.6136 300.213 59.1822C303.277 58.182 304.495 56.2526 304.75 54.0764C304.959 52.2642 304.491 50.3097 303.875 48.6357C303.322 47.1506 302.621 45.7247 301.783 44.3794C301.783 44.3794 319.779 34.4773 316.184 43.4796C315.63 44.8412 315.285 46.2792 315.163 47.7442C315.055 49.2002 315.212 50.6636 315.627 52.0633C316.306 54.3344 317.6 56.3737 319.365 57.956V57.956Z" fill="#FFCDD3"/>
<path opacity="0.1" d="M316.171 43.467C315.617 44.8286 315.273 46.2666 315.15 47.7317C313.455 49.1588 311.597 49.0625 309.207 49.0625C307.374 49.0625 305.34 49.5062 303.875 48.6231C303.322 47.138 302.621 45.7121 301.783 44.3668C301.783 44.3668 319.775 34.4647 316.171 43.467Z" fill="black"/>
<path d="M308.889 49.6902C314.268 49.6902 318.628 45.33 318.628 39.9514C318.628 34.5728 314.268 30.2125 308.889 30.2125C303.511 30.2125 299.15 34.5728 299.15 39.9514C299.15 45.33 303.511 49.6902 308.889 49.6902Z" fill="#FFCDD3"/>
<path opacity="0.1" d="M319.365 57.9558C319.365 57.9558 295.811 60.6134 300.213 59.1821C303.277 58.1818 304.495 56.2525 304.75 54.0762C305.922 52.8206 308.278 51.8874 309.772 51.4019C311.154 50.9374 312.645 50.9125 314.041 51.3307C314.59 51.4961 315.113 51.7385 315.594 52.0506C316.28 54.33 317.585 56.3743 319.365 57.9558V57.9558Z" fill="black"/>
<path opacity="0.1" d="M332.769 45.0239L328.266 46.066L328.17 45.3964C328.652 44.7341 329.327 44.2365 330.102 43.9714C330.877 43.7063 331.715 43.6865 332.502 43.9148L332.769 45.0239Z" fill="black"/>
<path opacity="0.1" d="M260.312 39.8845L254.909 42.5463L254.8 41.387C256.55 40.446 258.369 39.6388 260.241 38.9722L260.312 39.8845Z" fill="black"/>
<path opacity="0.1" d="M328.681 117.306C319.553 118.762 306.579 120.62 304.52 119.992C302.808 119.473 297.351 119.528 292.601 119.691C292.642 117.314 292.684 115.736 292.684 115.736L328.04 112.053C328.04 112.053 328.007 113.685 328.681 117.306Z" fill="black"/>
<path d="M337.779 115.163C337.779 115.163 307.742 120.319 304.52 119.348C301.297 118.377 284.745 119.427 284.745 119.427C277.296 124.42 280.405 117.055 280.405 117.055C280.405 117.055 279.752 113.208 280.652 110.099C281.256 107.816 281.669 105.486 281.887 103.135C281.887 103.135 281.723 98.2213 282.623 97.0746C283.523 95.9279 284.59 87.7459 284.59 87.7459C284.59 87.7459 285.406 82.1797 285.327 80.9534C285.247 79.7272 285.57 76.287 285.57 76.287L286.637 70.5575C280.497 69.7414 261.836 58.2825 261.836 58.2825C260.936 54.4363 253.98 45.434 253.98 45.434C253.879 44.677 253.686 43.9351 253.407 43.2243C252.917 41.9143 260.283 39.2944 260.283 39.2944C260.283 39.2944 265.765 45.9907 266.912 47.807C268.059 49.6234 271.985 52.9631 271.985 52.9631C272.594 52.9004 273.211 52.9806 273.784 53.1975L273.88 53.2268C275.196 53.7433 276.43 54.4482 277.542 55.3194C279.388 55.2756 281.178 55.9509 282.535 57.2027C282.535 57.2027 285.883 56.7088 286.465 57.2822C287.047 57.8556 289.901 57.2822 289.901 57.2822C289.901 57.2822 292.764 51.2263 294.647 52.9841C296.53 54.7418 304.52 54.6581 304.52 54.6581C305.583 53.2435 308.174 52.2307 309.793 51.7285C311.175 51.2659 312.666 51.2411 314.062 51.6574C314.664 51.8371 315.231 52.1203 315.736 52.4944L320.595 57.2404C320.595 57.2404 321.985 55.4366 321.821 55.0306C321.658 54.6246 323.458 54.294 323.458 54.294C323.458 54.294 325.831 53.5574 326.73 53.3105C327.63 53.0636 328.455 54.0387 328.53 54.1266C328.501 54.022 327.886 52.034 328.112 50.5274C328.338 49.0207 327.128 47.5978 327.128 47.5978C329.991 40.5584 336.457 46.451 336.457 46.451C336.457 46.451 337.193 50.2972 336.54 51.7704C335.888 53.2435 337.193 56.3531 337.03 57.1734C336.867 57.9937 337.361 59.3831 337.361 60.94C337.361 62.4969 336.524 65.4391 336.051 66.749C335.578 68.059 331.631 71.0053 331.631 71.0053C331.631 71.0053 331.384 75.6717 329.664 78.3712C327.944 81.0706 329.024 90.303 329.024 90.303C329.024 90.303 330.66 97.5057 332.707 99.7991C334.753 102.093 337.779 115.163 337.779 115.163Z" fill="#3F3D56"/>
<path opacity="0.1" d="M293.994 61.3083C293.994 61.3083 293.094 58.6088 292.274 58.3787C291.459 58.0791 290.667 57.7239 289.901 57.3156L290.428 56.307C290.428 56.307 293.5 57.144 293.994 58.0522C294.488 58.9604 293.994 61.3083 293.994 61.3083Z" fill="black"/>
<path opacity="0.1" d="M277.542 55.336C277.379 56.173 270.093 56.8887 270.093 56.8887L273.776 53.1974L273.868 53.2309C275.189 53.7501 276.426 54.4593 277.542 55.336V55.336Z" fill="black"/>
<path d="M256.466 44.756C256.827 44.756 257.119 44.4637 257.119 44.1031C257.119 43.7425 256.827 43.4502 256.466 43.4502C256.106 43.4502 255.813 43.7425 255.813 44.1031C255.813 44.4637 256.106 44.756 256.466 44.756Z" fill="#575988"/>
<path d="M257.303 46.0659C257.664 46.0659 257.956 45.7736 257.956 45.413C257.956 45.0524 257.664 44.7601 257.303 44.7601C256.942 44.7601 256.65 45.0524 256.65 45.413C256.65 45.7736 256.942 46.0659 257.303 46.0659Z" fill="#575988"/>
<path d="M258.123 47.2754C258.484 47.2754 258.776 46.9831 258.776 46.6225C258.776 46.2619 258.484 45.9696 258.123 45.9696C257.763 45.9696 257.47 46.2619 257.47 46.6225C257.47 46.9831 257.763 47.2754 258.123 47.2754Z" fill="#575988"/>
<path d="M258.981 48.5813C259.342 48.5813 259.634 48.289 259.634 47.9284C259.634 47.5678 259.342 47.2755 258.981 47.2755C258.621 47.2755 258.328 47.5678 258.328 47.9284C258.328 48.289 258.621 48.5813 258.981 48.5813Z" fill="#575988"/>
<path d="M336.13 48.3887C336.424 48.3887 336.662 48.1507 336.662 47.8572C336.662 47.5636 336.424 47.3257 336.13 47.3257C335.837 47.3257 335.599 47.5636 335.599 47.8572C335.599 48.1507 335.837 48.3887 336.13 48.3887Z" fill="#575988"/>
<path d="M336.214 49.5982C336.508 49.5982 336.746 49.3602 336.746 49.0667C336.746 48.7731 336.508 48.5352 336.214 48.5352C335.921 48.5352 335.683 48.7731 335.683 49.0667C335.683 49.3602 335.921 49.5982 336.214 49.5982Z" fill="#575988"/>
<path d="M336.285 50.8035C336.579 50.8035 336.817 50.5655 336.817 50.272C336.817 49.9784 336.579 49.7405 336.285 49.7405C335.992 49.7405 335.754 49.9784 335.754 50.272C335.754 50.5655 335.992 50.8035 336.285 50.8035Z" fill="#575988"/>
<path opacity="0.1" d="M294.023 83.4896C293.944 83.3933 312.396 106.692 326.718 93.2284C326.73 93.2326 304.101 96.3003 294.023 83.4896Z" fill="black"/>
<path opacity="0.1" d="M283.435 95.6013C283.435 95.6013 294.475 95.9026 295.631 99.0792V102.385C295.316 102.56 294.963 102.651 294.603 102.651C294.244 102.651 293.89 102.56 293.576 102.385C292.462 101.783 285.787 98.3928 283.435 100.025V95.6013Z" fill="black"/>
<path d="M283.64 95.6013C283.64 95.6013 294.199 95.8901 295.304 98.9201V102.067C295.003 102.234 294.665 102.322 294.32 102.322C293.976 102.322 293.638 102.234 293.337 102.067C292.274 101.498 285.892 98.2631 283.64 99.8199V95.6013Z" fill="#3F3D56"/>
<path opacity="0.1" d="M289.462 71.6289C290.59 74.2398 292.027 76.7057 293.743 78.9738C295.609 81.4808 297.871 83.6675 300.439 85.4483C300.439 85.4483 289.646 73.1439 289.462 71.6289Z" fill="black"/>
<path opacity="0.1" d="M285.85 58.8013C285.85 58.8013 287.691 66.753 292.437 69.4525L285.85 58.8013Z" fill="black"/>
<path opacity="0.1" d="M283.025 59.6049C282.979 59.4584 281.388 65.8826 289.143 69.4525C289.143 69.4525 285.85 68.3351 283.025 59.6049Z" fill="black"/>
<path opacity="0.1" d="M331.234 54.273C331.112 54.273 335.059 56.7841 336.135 57.9559C336.135 57.9559 333.565 54.1056 331.234 54.273Z" fill="black"/>
<path d="M306.257 48.7779C306.258 48.9903 306.304 49.2002 306.39 49.3941C306.477 49.5881 306.603 49.762 306.76 49.9048C306.918 50.0475 307.103 50.1561 307.304 50.2237C307.506 50.2912 307.719 50.3162 307.931 50.2971C310.898 50.4812 313.991 50.611 316.72 49.46C317.231 49.2774 317.691 48.9728 318.059 48.5728C318.544 47.9743 318.641 47.1624 318.837 46.4174C319.222 44.961 320.043 43.6678 320.633 42.2825C321.631 39.9421 321.966 37.3719 321.599 34.8539C321.522 34.082 321.267 33.3386 320.855 32.6818C320.068 31.556 318.632 31.0998 317.59 30.2042C316.548 29.3086 315.878 27.94 314.66 27.2746C313.564 26.6635 312.221 26.7389 310.986 26.9481C308.557 27.3605 306.23 28.2342 304.131 29.522C303.423 29.9405 302.649 30.4553 301.837 30.3004C301.126 30.1665 300.607 29.568 300.163 29.0072C299.592 30.3465 299.353 31.8036 299.464 33.2552C299.495 33.4682 299.488 33.6849 299.443 33.8955C299.341 34.15 299.185 34.3798 298.987 34.5693C298.255 35.4063 297.799 36.7665 298.523 37.6286C298.836 38.0011 299.322 38.2062 299.627 38.587C300.176 39.2692 299.992 40.2611 299.979 41.1316C299.949 41.4356 300.026 41.7405 300.197 41.9937C300.355 42.1413 300.549 42.2455 300.759 42.2961C300.97 42.3467 301.19 42.342 301.398 42.2825C301.812 42.1576 302.248 42.1164 302.678 42.1611C303.132 42.3087 303.524 42.6032 303.792 42.9982C305.143 44.7601 305.679 46.6769 306.257 48.7779Z" fill="#2D293D"/>
<g opacity="0.1">
<path opacity="0.1" d="M318.406 47.8321C318.039 48.2322 317.579 48.5367 317.067 48.7194C314.322 49.8619 311.233 49.7322 308.278 49.5564C307.961 49.5595 307.647 49.4894 307.362 49.3513C306.91 49.0876 306.738 48.5352 306.6 48.033C306.022 45.9404 305.491 44.0194 304.118 42.2742C303.854 41.8717 303.462 41.5695 303.005 41.4163C302.574 41.3756 302.14 41.4168 301.724 41.5376C301.517 41.5977 301.297 41.603 301.086 41.5531C300.876 41.5033 300.682 41.3999 300.523 41.253C300.352 40.9998 300.275 40.6949 300.306 40.3909C300.306 39.512 300.502 38.5285 299.954 37.8463C299.648 37.4655 299.163 37.2604 298.849 36.8838C298.644 36.6061 298.519 36.2781 298.486 35.9346C298.452 35.5912 298.513 35.2452 298.661 34.9335C298.138 35.7705 297.916 36.821 298.523 37.5408C298.837 37.9133 299.322 38.1184 299.628 38.4992C300.176 39.1856 299.992 40.1733 299.979 41.0438C299.947 41.3473 300.022 41.6525 300.193 41.9059C300.351 42.0542 300.546 42.1588 300.757 42.2094C300.968 42.26 301.189 42.255 301.398 42.1947C301.812 42.0698 302.248 42.0286 302.679 42.0733C303.132 42.2209 303.524 42.5154 303.792 42.9104C305.16 44.6556 305.696 46.5724 306.274 48.6733C306.341 49.1903 306.599 49.6634 306.998 50C307.284 50.1383 307.6 50.2071 307.918 50.2009C310.886 50.385 313.978 50.519 316.707 49.3639C317.22 49.1824 317.679 48.8777 318.046 48.4766C318.231 48.2409 318.373 47.9745 318.465 47.6898C318.469 47.7442 318.44 47.7903 318.406 47.8321Z" fill="black"/>
<path opacity="0.1" d="M299.464 33.6403C299.596 33.4975 299.697 33.3295 299.761 33.1464C299.799 32.9347 299.799 32.7179 299.761 32.5061C299.68 31.3129 299.835 30.1153 300.218 28.9822L300.163 28.9194C299.591 30.2567 299.351 31.7129 299.464 33.1632C299.477 33.322 299.477 33.4815 299.464 33.6403V33.6403Z" fill="black"/>
</g>
<path opacity="0.1" d="M304.52 54.6789C304.52 54.6789 316.686 56.2944 317.779 54.4655Z" fill="black"/>
<path opacity="0.1" d="M328.17 49.6443C328.17 49.6443 334.933 49.6443 336.419 52.1889Z" fill="black"/>
<path d="M366.008 275.705C364.002 277.498 361.395 278.472 358.705 278.434C358.018 278.434 357.068 278.563 357.064 279.25C357.081 279.451 357.15 279.645 357.265 279.811C358.114 281.226 359.455 282.28 361.032 282.77C362.497 283.213 364.062 283.138 365.589 283.058L370.047 282.828C370.884 282.782 371.721 282.74 372.558 282.636C373.395 282.531 374.307 282.359 375.182 282.217C377.331 281.912 379.504 281.811 381.673 281.916C382.25 281.937 382.928 281.916 383.272 281.497C383.615 281.079 383.439 280.279 383.309 279.652C383.041 278.358 383.309 277.002 383.062 275.705C382.644 273.428 380.673 271.683 378.513 270.859C376.504 270.097 372.947 269.222 371.047 270.494C369.042 271.83 367.816 274.06 366.008 275.705Z" fill="#3F3D56"/>
<path d="M370.436 199.427C370.829 201.297 372.641 202.729 372.692 204.637C372.738 206.169 371.645 207.454 370.859 208.764C370.117 210.12 369.491 211.537 368.988 212.999C367.506 216.805 365.668 220.463 363.497 223.922C362.451 225.596 361.279 227.383 361.517 229.329C361.684 230.24 362.005 231.114 362.467 231.916L365.606 238.152C366.294 239.397 366.832 240.719 367.209 242.09C367.481 243.274 367.506 244.501 367.665 245.706C368.159 249.531 369.955 253.382 368.892 257.09C368.8 257.408 368.473 257.793 368.218 257.571C369.256 259.509 370.089 261.459 370.009 263.656C369.967 264.807 369.616 266.008 370.038 267.08C370.218 267.527 370.532 267.946 370.528 268.427C370.528 268.745 370.381 269.042 370.348 269.352C370.26 270.235 371.072 270.972 371.913 271.252C372.754 271.533 373.671 271.512 374.521 271.767C376.153 272.257 377.32 273.663 378.706 274.638C380.127 275.617 381.802 276.162 383.527 276.207C383.773 276.234 384.021 276.184 384.239 276.065C384.362 275.957 384.46 275.825 384.528 275.676C384.596 275.528 384.631 275.366 384.632 275.203C384.708 274.421 384.59 273.633 384.289 272.907C383.989 272.182 383.514 271.542 382.908 271.043C382.642 270.876 382.422 270.646 382.267 270.373C382.189 270.132 382.169 269.875 382.209 269.624C382.461 266.194 382.4 262.748 382.025 259.329C381.855 258.245 381.801 257.147 381.861 256.052C381.949 255.139 382.225 254.235 382.125 253.327C382.025 252.419 381.56 251.59 381.288 250.716C380.803 249.159 380.936 247.485 380.869 245.857C380.786 243.027 380.137 240.249 379.493 237.486C379.237 236.402 378.957 235.268 378.191 234.465C377.538 233.782 376.483 233.13 376.73 232.221C376.867 231.887 377.071 231.583 377.329 231.33C377.632 230.95 377.854 230.512 377.982 230.042C378.11 229.573 378.142 229.083 378.074 228.601C378.349 228.672 378.64 228.644 378.897 228.523C379.155 228.403 379.362 228.197 379.484 227.94C384.582 225.534 388.692 220.721 390.525 215.385C390.633 214.988 390.799 214.61 391.018 214.263C391.491 213.602 392.312 213.317 393.04 212.953C395.325 211.802 396.903 209.647 398.351 207.537C399.188 206.315 400.025 205.051 400.402 203.612C400.6 202.681 400.694 201.73 400.682 200.778L400.812 195.861C400.84 195.537 400.809 195.211 400.72 194.898C400.595 194.606 400.415 194.342 400.188 194.12C398.796 192.648 396.968 191.662 394.973 191.307C393.634 191.069 392.266 191.115 390.91 191.002C388.281 190.784 385.687 189.968 383.058 190.165C378.928 190.47 375.249 193.333 373.303 196.991C372.621 198.28 371.901 199.401 370.436 199.427Z" fill="#C5DF16"/>
<path d="M347.501 167.452C347.557 168.211 347.454 168.974 347.2 169.691C346.878 170.377 346.07 170.913 345.363 170.633C345.576 170.151 345.011 169.603 344.484 169.662C344.224 169.722 343.983 169.843 343.782 170.017C343.58 170.19 343.423 170.41 343.325 170.658C342.975 171.361 342.858 172.156 342.99 172.93C343.157 173.893 343.714 174.818 343.567 175.785C343.45 176.588 342.86 177.388 343.174 178.132C343.378 178.473 343.633 178.779 343.931 179.041C344.345 179.55 344.547 180.199 344.497 180.853C344.446 181.507 344.146 182.117 343.659 182.556L351.578 182.715C351.289 184.038 351.883 185.39 352.561 186.566C354.46 189.799 357.082 192.548 360.222 194.598C363.362 196.648 366.934 197.942 370.658 198.38C370.456 198.498 370.284 198.659 370.152 198.851C370.021 199.044 369.933 199.263 369.897 199.493C369.861 199.723 369.876 199.959 369.941 200.183C370.007 200.406 370.122 200.613 370.277 200.787C370.921 201.427 372.014 201.348 372.822 200.933C373.629 200.519 374.261 199.832 374.998 199.301C376.298 198.38 377.885 197.952 379.472 198.096C380.464 198.192 381.426 198.514 382.422 198.564C385.352 198.719 387.863 196.61 390.684 195.748C392.739 195.116 395.07 195.116 396.794 193.831C397.539 193.279 398.15 192.37 397.932 191.475C397.752 190.96 397.467 190.488 397.095 190.089C396.104 188.805 395.518 187.26 394.806 185.8C393.397 182.908 391.456 180.307 389.085 178.132C387.296 176.568 385.399 175.131 383.41 173.83C382.929 173.475 382.416 173.166 381.878 172.905C381.183 172.6 380.413 172.453 379.786 172.068C378.857 171.482 378.321 170.449 377.605 169.616C376.036 167.783 373.625 166.941 371.692 165.502C370.394 164.535 369.247 163.263 367.699 162.798C366.946 162.568 366.146 162.551 365.393 162.325C363.681 161.806 362.434 160.287 360.756 159.672C359.429 159.186 357.964 159.312 356.571 159.14C355 158.946 353.499 158.375 352.197 157.475C351.778 157.133 351.307 156.859 350.803 156.663C348.682 156.018 348.51 159.969 348.292 161.337C348.012 163.371 347.501 165.393 347.501 167.452Z" fill="#0C4E8C"/>
<path d="M349.569 180.702C349.925 184.561 347.012 188.298 347.861 192.077C348.041 192.881 348.389 193.647 348.514 194.463C348.87 196.702 347.531 198.824 346.254 200.699L335.289 216.791C334.849 217.497 334.323 218.147 333.724 218.724C331.631 220.587 328.484 220.398 325.73 220.951C323.796 221.348 321.969 222.156 320.373 223.32C320.301 223.375 320.254 223.457 320.242 223.547C320.229 223.637 320.252 223.728 320.306 223.801C320.761 224.42 321.363 224.915 322.058 225.242C322.754 225.569 323.52 225.717 324.286 225.672C324.575 226.048 324.286 226.609 323.889 226.881C323.303 227.3 322.491 227.396 322.374 228.396C322.334 228.744 322.404 229.095 322.575 229.401C323.018 230.075 323.705 230.552 324.491 230.731C328.287 231.895 332.389 229.853 335.231 227.078C338.072 224.303 340.11 220.8 342.898 217.979C344.442 216.414 346.196 215.079 347.786 213.564C350.958 210.538 353.428 206.868 355.805 203.189C356.52 202.08 357.244 200.942 357.542 199.657C357.839 198.372 357.701 197.07 358.04 195.827C358.483 194.199 359.676 192.898 360.668 191.533C362.614 188.855 363.916 185.578 363.656 182.276C363.397 178.974 361.354 175.718 358.24 174.596C357.275 174.212 356.211 174.148 355.206 174.412C353.93 174.805 352.988 175.86 352.118 176.873L350.025 179.275C349.516 179.807 349.116 180.434 348.849 181.121C348.714 181.467 348.682 181.844 348.756 182.208C348.83 182.571 349.008 182.906 349.268 183.171" fill="#FBBEBE"/>
<path d="M355.127 164.874C353.687 164.958 352.101 165.1 351.084 166.129C350.657 166.602 350.312 167.142 350.063 167.728C349.075 169.741 348.112 171.846 348.041 174.09C347.983 175.881 348.502 177.634 348.774 179.405C349 180.878 348.426 182.38 348.317 183.87C350.104 183.322 352.465 182.577 354.085 181.652C355.189 181.02 356.257 180.3 357.462 179.899C359.182 179.325 362.066 180.317 363.702 181.112C363.79 179.966 362.928 177.965 363.02 176.814C363.033 176.33 363.119 175.85 363.275 175.391C363.52 174.906 363.81 174.445 364.141 174.014C364.764 173.002 365.051 171.818 364.96 170.632C364.869 169.447 364.405 168.32 363.635 167.414C362.183 165.782 359.91 165.171 357.742 164.903C356.377 164.745 355.001 164.697 353.628 164.761" fill="#0C4E8C"/>
<defs>
<linearGradient id="paint0_linear" x1="295.564" y1="228.584" x2="295.564" y2="24.0729" gradientUnits="userSpaceOnUse">
<stop stop-color="#808080" stop-opacity="0.25"/>
<stop offset="0.54" stop-color="#808080" stop-opacity="0.12"/>
<stop offset="1" stop-color="#808080" stop-opacity="0.1"/>
</linearGradient>
</defs>
</svg>
